<?xml version="1.0" standalone="no"?>
<!DOCTYPE svg PUBLIC "-//W3C//DTD SVG 20010904//EN"
 "http://www.w3.org/TR/2001/REC-SVG-20010904/DTD/svg10.dtd">
<svg version="1.0" xmlns="http://www.w3.org/2000/svg"
 width="655.000000pt" height="562.000000pt" viewBox="0 0 655.000000 562.000000"
 preserveAspectRatio="xMidYMid meet">

<g transform="translate(0.000000,562.000000) scale(0.100000,-0.100000)"
fill="#000000" stroke="none">
<path d="M4630 5493 c0 -5 -15 -24 -33 -44 -56 -64 -77 -89 -77 -94 0 -6 -12
-21 -38 -50 -7 -8 -20 -15 -29 -15 -13 0 -13 3 -3 15 7 9 10 18 7 22 -4 3 -2
12 4 20 6 7 9 13 6 13 -3 0 1 22 8 49 9 36 10 52 2 60 -16 16 -57 14 -57 -3 0
-8 -4 -16 -8 -18 -11 -4 -43 -119 -36 -129 3 -5 -2 -9 -11 -9 -9 0 -14 -3 -12
-7 7 -11 -11 -53 -21 -53 -5 0 -12 14 -16 30 -12 62 -65 46 -64 -19 0 -41 -23
-95 -56 -126 -12 -11 -32 -33 -46 -50 l-25 -30 24 20 24 20 -18 -27 c-9 -16
-25 -28 -35 -28 -9 0 -25 -10 -36 -21 -19 -22 -19 -22 2 -11 16 9 21 8 21 -4
0 -7 -8 -14 -18 -14 -10 0 -21 -5 -24 -10 -4 -6 -10 -8 -14 -5 -5 2 -17 -2
-27 -11 -18 -14 -18 -15 6 -9 23 6 24 5 5 -7 -11 -7 -25 -13 -32 -14 -20 -3
-39 -17 -122 -88 -44 -38 -83 -77 -86 -87 -3 -9 -17 -24 -30 -33 -14 -9 -25
-21 -25 -28 0 -6 -14 -24 -30 -40 -17 -16 -28 -33 -26 -37 3 -5 -8 -21 -25
-37 -35 -34 -82 -120 -74 -135 4 -5 16 -7 28 -3 12 3 19 3 15 -1 -4 -4 -22 -9
-40 -11 -18 -2 -44 -13 -58 -24 -14 -11 -43 -30 -65 -41 -36 -20 -38 -23 -20
-30 16 -6 14 -8 -12 -8 -32 -1 -68 -34 -57 -53 3 -4 1 -8 -4 -8 -6 0 -12 -16
-14 -36 -3 -29 0 -38 16 -44 20 -9 20 -9 -1 -9 -26 -1 -30 -31 -14 -89 7 -24
7 -32 -1 -30 -19 7 -25 70 -14 146 5 31 4 52 -2 52 -17 0 -61 -48 -67 -73 -4
-13 -17 -29 -30 -35 -13 -6 -34 -25 -46 -41 l-22 -30 -33 29 c-71 62 -162 101
-263 114 l-53 7 5 -48 6 -48 -16 48 c-15 41 -20 47 -45 47 -49 0 -118 -21
-118 -36 0 -16 -17 -19 -22 -4 -4 12 -57 -14 -99 -50 -21 -19 -30 -32 -23 -37
5 -4 16 -23 24 -41 7 -19 20 -40 28 -48 8 -8 11 -18 7 -22 -4 -4 -10 -2 -12 5
-8 21 -63 93 -72 93 -4 0 -27 -28 -51 -61 l-43 -61 18 -32 c18 -31 18 -31 -2
-13 -11 9 -22 17 -25 17 -12 0 -32 -108 -31 -170 1 -49 10 -92 40 -175 62
-173 69 -144 -65 -281 -112 -113 -212 -244 -212 -277 0 -8 -6 -19 -13 -25 -7
-6 -24 -34 -37 -62 -13 -27 -27 -50 -32 -50 -5 0 -6 5 -3 10 10 16 -5 12 -22
-6 -14 -13 -14 -17 -2 -25 9 -6 0 -7 -27 -3 -36 5 -43 3 -62 -21 -12 -15 -22
-37 -22 -47 0 -19 1 -19 19 3 16 20 22 22 33 11 11 -11 10 -15 -2 -25 -9 -7
-22 -32 -29 -57 -7 -25 -17 -49 -21 -55 -22 -28 -33 -124 -26 -231 5 -90 3
-115 -8 -121 -19 -11 -36 -47 -36 -77 0 -25 6 -29 65 -41 17 -3 41 -15 55 -25
25 -20 25 -20 -20 0 -25 11 -59 20 -76 20 -30 0 -32 -2 -39 -47 -4 -31 -3 -49
4 -51 7 -2 6 -10 -2 -23 -15 -24 -23 -24 -30 1 -3 11 -1 20 4 20 5 0 9 25 9
55 0 48 -2 55 -20 55 -13 0 -27 -14 -40 -40 -26 -52 -33 -51 -14 2 13 36 13
44 0 56 -12 13 -18 12 -45 -7 -16 -12 -39 -33 -50 -47 -11 -13 -22 -21 -25
-16 -3 5 13 26 34 47 22 22 40 43 40 47 0 5 -15 17 -33 28 -40 25 -24 25 23 1
34 -19 35 -19 72 3 21 11 38 24 38 27 0 13 -81 39 -119 39 -38 0 -68 -20 -57
-38 3 -5 -7 -12 -22 -15 -15 -3 -49 -26 -77 -51 -72 -67 -70 -56 5 20 l65 65
-64 -3 c-61 -3 -66 -5 -109 -48 -36 -37 -40 -39 -23 -13 l22 32 -48 -2 c-34
-1 -53 -8 -65 -22 -10 -11 -17 -15 -18 -8 0 21 -92 12 -109 -10 -8 -11 -16
-15 -20 -9 -8 13 -53 18 -70 8 -7 -5 -16 -4 -20 1 -6 10 -31 17 -113 33 -27 5
-52 11 -57 15 -5 3 -13 0 -16 -6 -4 -6 -29 -9 -59 -8 -51 3 -51 3 -70 -36 -10
-22 -21 -56 -23 -76 -5 -34 -3 -37 38 -58 24 -12 49 -28 54 -34 6 -7 26 -12
47 -13 20 -1 44 -5 55 -9 10 -4 34 -7 54 -6 22 2 40 -4 49 -14 7 -9 21 -13 31
-10 12 4 27 -2 43 -19 13 -14 27 -26 30 -26 4 0 28 -16 52 -36 48 -40 52 -54
30 -127 -13 -42 -12 -46 5 -50 11 -3 19 -11 19 -17 0 -8 -8 -10 -22 -7 -30 8
-48 -9 -48 -45 0 -16 -9 -46 -20 -68 -11 -21 -17 -46 -14 -54 4 -11 0 -16 -15
-16 -11 0 -25 -9 -31 -20 -6 -11 -8 -20 -5 -20 3 0 1 -9 -5 -21 -9 -15 -8 -24
2 -36 11 -14 10 -15 -10 -9 -24 8 -56 -9 -46 -25 7 -12 -14 -51 -38 -69 -18
-15 -25 -34 -27 -70 -1 -8 -15 -23 -31 -32 -21 -12 -30 -25 -30 -42 0 -15 -13
-38 -35 -59 -21 -20 -35 -44 -35 -58 0 -13 -4 -31 -10 -39 -5 -9 -5 -19 2 -27
8 -10 5 -13 -15 -13 -34 0 -40 -13 -32 -67 9 -61 41 -93 94 -93 39 0 42 2 63
48 14 28 34 52 50 60 19 9 31 25 38 52 6 24 22 47 39 59 16 12 31 34 34 51 4
16 13 30 20 30 19 0 47 33 47 54 0 10 14 31 30 46 21 19 32 40 33 62 2 19 13
44 25 56 20 20 27 37 34 86 5 33 54 38 120 14 48 -17 65 -19 100 -10 24 5 54
10 68 10 47 0 157 20 179 32 13 6 24 10 26 8 7 -7 12 -195 5 -213 -4 -11 -3
-30 3 -42 6 -14 6 -31 -1 -51 -12 -35 11 -94 34 -85 21 8 17 -10 -6 -25 -29
-18 -25 -47 10 -72 59 -42 140 0 124 65 -4 17 0 38 12 60 15 28 16 38 6 60
-10 21 -10 31 -1 41 7 9 10 32 7 59 -3 25 -2 48 3 51 5 3 9 18 9 35 0 16 5 29
10 29 6 0 41 -14 78 -31 119 -54 191 -50 285 18 64 47 120 128 158 229 22 58
37 84 48 84 33 -1 111 -67 189 -162 107 -126 285 -270 577 -465 145 -96 178
-116 460 -274 322 -180 448 -244 560 -284 123 -45 449 -125 650 -160 83 -14
254 -55 380 -91 288 -82 370 -94 457 -70 117 32 178 96 178 185 0 82 -83 256
-171 357 -22 25 -49 64 -60 86 -11 21 -36 63 -55 93 -42 66 -43 80 -6 70 26
-7 302 -9 412 -2 118 7 175 61 194 184 5 38 3 43 -29 71 -19 17 -56 43 -82 58
-26 14 -67 39 -91 55 -23 16 -49 29 -56 29 -8 0 -49 18 -91 40 -76 41 -77 41
-213 47 -123 5 -149 9 -252 43 -63 21 -137 43 -165 50 -27 6 -54 15 -60 20
-17 13 -116 40 -150 40 -92 0 -145 -58 -145 -159 0 -73 10 -101 62 -169 22
-30 38 -56 35 -58 -2 -3 -20 4 -38 15 -19 10 -104 58 -189 106 -85 48 -222
128 -305 178 -82 49 -184 107 -226 128 -72 36 -110 50 -366 128 -57 18 -103
33 -103 34 0 1 9 26 20 55 11 29 23 81 27 114 7 71 21 88 89 113 27 10 94 36
149 58 55 21 118 46 140 55 l41 15 47 -36 c31 -23 63 -38 93 -43 42 -6 145 -1
201 10 11 3 43 8 70 12 26 3 71 15 98 25 28 9 97 21 155 24 85 6 113 12 147
32 22 13 49 25 60 27 18 4 113 65 146 93 26 24 21 45 -24 105 -52 71 -102 99
-186 104 -93 6 -96 8 -97 97 -1 70 -3 78 -31 107 -49 52 -118 81 -244 101 -66
11 -181 41 -266 68 -230 76 -253 81 -395 77 -69 -2 -136 -6 -150 -9 -14 -2
-48 -8 -77 -11 -28 -4 -87 -17 -131 -30 l-80 -23 -5 23 c-5 27 16 339 33 489
7 55 15 150 19 211 7 103 10 115 43 170 58 97 105 197 122 258 8 32 16 59 18
61 2 2 55 57 118 122 105 107 118 125 144 193 50 132 94 215 152 286 71 87 90
98 157 89 29 -4 59 -11 67 -15 8 -5 35 -10 60 -13 50 -6 65 -10 129 -39 55
-25 115 -21 119 7 2 14 -11 29 -47 53 -27 17 -54 32 -59 32 -24 0 -75 36 -97
68 -49 73 -27 141 68 206 32 22 57 43 57 48 0 4 7 8 15 8 8 0 15 4 15 9 0 5
16 19 35 32 41 28 46 56 11 65 -28 7 -42 0 -153 -73 -44 -29 -84 -53 -87 -53
-3 0 -6 9 -6 20 0 11 5 20 10 20 6 0 10 7 10 15 0 8 4 15 8 15 5 0 14 16 22
35 8 19 17 35 22 35 4 0 8 5 8 10 0 6 10 24 21 40 12 16 19 36 16 44 -6 16
-57 23 -57 9z m-260 -277 c0 -2 -7 -7 -16 -10 -8 -3 -12 -2 -9 4 6 10 25 14
25 6z m-75 -16 c-28 -12 -37 -12 -30 0 3 6 16 10 28 9 21 0 21 -1 2 -9z m-306
-301 c-22 -14 -33 -10 -19 6 7 8 17 12 22 9 6 -4 5 -10 -3 -15z m-35 -34 c-6
-16 -44 -41 -44 -29 0 5 40 43 47 44 1 0 0 -7 -3 -15z m-60 -70 c-9 -14 -23
-25 -31 -25 -9 0 -3 10 14 25 35 31 37 31 17 0z m-44 -79 c0 -11 -19 -15 -25
-6 -3 5 1 10 9 10 9 0 16 -2 16 -4z m-40 -10 c0 -2 -11 -6 -25 -8 -13 -3 -22
-1 -19 3 5 9 44 13 44 5z m-80 -86 c-8 -5 -19 -10 -25 -10 -5 0 -3 5 5 10 8 5
20 10 25 10 6 0 3 -5 -5 -10z m-46 -101 c-2 -4 -19 -9 -38 -11 -24 -3 -32 0
-26 7 9 11 71 15 64 4z m-14 -85 c-15 -17 -17 -17 -23 -1 -3 8 3 14 15 14 16
2 17 -1 8 -13z m-970 -559 l35 5 -28 -15 -27 -16 30 -47 31 -47 -40 44 c-23
24 -41 37 -41 30 0 -8 -11 -31 -25 -51 -14 -20 -25 -45 -25 -55 0 -9 21 -40
48 -67 44 -47 45 -48 7 -16 -22 18 -44 39 -48 47 -5 7 -12 11 -18 8 -5 -4 -9
-1 -9 6 0 7 -19 36 -42 63 l-41 51 39 -37 c22 -21 43 -38 47 -38 9 0 57 95 57
112 0 7 -16 37 -35 65 -49 72 -44 79 8 10 40 -54 44 -57 77 -52z m-239 8 c13
-16 12 -17 -3 -4 -10 7 -18 15 -18 17 0 8 8 3 21 -13z m804 -255 c17 -67 17
-166 0 -210 -13 -32 -86 -26 -119 11 -17 19 -16 23 18 108 19 49 41 113 48
142 10 45 14 50 24 36 7 -9 20 -48 29 -87z m-660 -113 c40 -37 40 -37 7 -19
-40 22 -122 107 -122 126 0 7 17 -6 38 -28 20 -23 55 -58 77 -79z m131 86 c0
-16 -3 -17 -14 -9 -12 10 -7 19 13 28 1 0 1 -9 1 -19z m-11 -195 c77 -38 141
-70 143 -71 2 -2 0 -14 -4 -29 -8 -35 -57 -86 -81 -86 -44 0 -135 92 -192 193
-21 37 -28 72 -13 65 4 -1 70 -34 147 -72z m-295 -96 c-29 -34 -51 -62 -49
-65 11 -10 119 -7 133 4 12 10 14 9 9 -8 -3 -12 -9 -21 -14 -21 -5 0 -16 -14
-24 -31 -9 -17 -19 -29 -22 -26 -2 3 3 16 12 30 14 23 14 25 0 31 -9 3 -38 6
-64 6 -40 0 -50 -4 -59 -22 -6 -13 -23 -43 -38 -67 l-26 -43 63 5 64 6 -63
-12 c-67 -13 -82 -25 -82 -69 0 -15 -7 -43 -16 -62 -16 -32 -16 -36 2 -74 15
-31 31 -47 72 -68 62 -32 62 -45 0 -16 -24 11 -50 22 -59 25 -9 3 -19 19 -22
36 -4 17 -13 34 -20 37 -11 4 -8 15 10 53 16 31 23 61 21 84 l-3 35 -35 -13
c-69 -25 -74 -25 -25 0 28 13 55 25 62 25 15 0 95 128 88 140 -3 5 -19 7 -35
5 -17 -2 -28 0 -25 6 4 5 23 9 45 9 34 0 43 6 90 60 29 33 54 60 57 60 3 0
-19 -27 -47 -60z m127 -86 c-3 -3 -12 -4 -19 -1 -8 3 -5 6 6 6 11 1 17 -2 13
-5z m-100 -94 c-3 -21 -17 -40 -17 -22 0 13 11 42 16 42 2 0 3 -9 1 -20z
m-278 -374 c-11 -9 -59 -15 -59 -7 0 5 12 11 28 13 27 3 39 1 31 -6z m-15
-120 c-10 -8 -21 -12 -24 -10 -5 6 21 24 34 24 6 0 1 -6 -10 -14z m3001 -66
c10 -11 16 -20 13 -20 -3 0 -13 9 -23 20 -10 11 -16 20 -13 20 3 0 13 -9 23
-20z m-2944 -98 c-32 -34 -63 -62 -69 -62 -6 0 2 12 16 28 15 15 39 41 53 58
21 26 48 45 56 40 1 -1 -24 -30 -56 -64z m-147 -7 c-4 -8 -11 -12 -16 -9 -6 4
-5 10 3 15 19 12 19 11 13 -6z m220 -77 c-20 -17 -47 -56 -60 -87 -22 -49 -26
-53 -37 -36 -10 13 -23 16 -50 13 -20 -2 -33 0 -30 5 3 5 25 7 48 4 38 -4 44
-2 54 20 16 36 14 41 -21 46 -29 3 -28 4 6 3 27 0 43 6 55 20 16 21 49 43 64
44 4 0 -9 -14 -29 -32z m-169 14 c-53 -42 -60 -46 -33 -19 16 15 31 27 35 27
4 0 3 -3 -2 -8z m153 -72 c-7 -10 -14 -17 -17 -15 -4 4 18 35 25 35 2 0 -1 -9
-8 -20z m-248 -26 c-18 -21 -24 -10 -9 18 8 14 14 18 17 10 2 -7 -2 -19 -8
-28z m-926 -178 c-6 -25 -24 -37 -24 -15 0 15 21 52 26 46 3 -3 2 -16 -2 -31z
m50 -25 c-27 -42 -41 -48 -30 -14 7 23 46 66 53 60 2 -3 -8 -24 -23 -46z m45
-30 c-35 -45 -39 -47 -39 -28 0 16 59 81 67 74 3 -3 -10 -24 -28 -46z m318 43
c-3 -4 -24 -10 -47 -14 -33 -6 -38 -5 -29 6 6 8 27 14 47 14 19 0 33 -3 29 -6z
m371 -11 c-10 -2 -26 -2 -35 0 -10 3 -2 5 17 5 19 0 27 -2 18 -5z m-654 -77
c-33 -29 -44 -32 -44 -12 0 19 53 57 64 46 5 -5 -4 -19 -20 -34z m406 14 c0
-5 -12 -10 -27 -10 -22 0 -25 2 -13 10 20 13 40 13 40 0z m-210 -44 c0 -2 -15
-6 -34 -8 -19 -2 -32 0 -30 4 5 8 64 12 64 4z m-163 -72 c-3 -3 -12 -4 -19 -1
-8 3 -5 6 6 6 11 1 17 -2 13 -5z m306 -9 c1 -6 -11 -11 -28 -13 -29 -2 -29 -2
-10 13 20 16 35 16 38 0z m-240 -69 c9 -7 17 -21 17 -30 0 -19 -30 -22 -48 -4
-16 16 -15 48 1 48 6 0 20 -7 30 -14z m477 -366 c0 -5 -5 -10 -11 -10 -5 0 -7
5 -4 10 3 6 8 10 11 10 2 0 4 -4 4 -10z m10 -94 c0 -2 -7 -6 -15 -10 -8 -3
-15 -1 -15 4 0 6 7 10 15 10 8 0 15 -2 15 -4z"/>
<path d="M2042 3046 c-40 -28 -62 -56 -61 -76 0 -10 2 -11 6 -3 2 7 31 29 64
48 32 20 59 41 59 46 0 16 -34 9 -68 -15z"/>
<path d="M1747 2279 c-9 -6 -17 -14 -17 -19 0 -17 27 -11 34 6 8 22 5 25 -17
13z"/>
<path d="M1786 2264 c-7 -19 2 -37 15 -29 12 8 12 45 0 45 -5 0 -12 -7 -15
-16z"/>
</g>
</svg>
