<?xml version="1.0" standalone="no"?>
<!DOCTYPE svg PUBLIC "-//W3C//DTD SVG 20010904//EN"
 "http://www.w3.org/TR/2001/REC-SVG-20010904/DTD/svg10.dtd">
<svg version="1.0" xmlns="http://www.w3.org/2000/svg"
 width="1600.000000pt" height="1263.000000pt" viewBox="0 0 1600.000000 1263.000000"
 preserveAspectRatio="xMidYMid meet">

<g transform="translate(0.000000,1263.000000) scale(0.100000,-0.100000)"
fill="#000000" stroke="none">
<path d="M8625 12570 c-250 -33 -559 -186 -820 -405 -33 -28 -78 -64 -100 -82
-23 -17 -47 -44 -55 -60 -8 -15 -43 -71 -78 -123 -76 -114 -140 -243 -182
-365 -43 -125 -54 -276 -41 -545 6 -113 10 -232 10 -265 -2 -64 15 -261 30
-354 5 -31 5 -62 1 -70 -4 -8 -61 -29 -127 -47 -66 -18 -161 -48 -210 -67 -80
-31 -595 -288 -676 -338 -18 -10 -42 -19 -54 -19 -12 0 -25 -4 -28 -10 -4 -6
1 -7 12 -4 17 5 16 4 -1 -10 -12 -10 -34 -14 -63 -12 -119 9 -346 -95 -360
-165 -3 -16 -9 -29 -14 -29 -10 0 -174 -137 -213 -178 -15 -17 -35 -28 -42
-25 -22 8 -97 -72 -90 -95 5 -14 -16 -52 -69 -131 -133 -197 -243 -438 -310
-681 -37 -134 -85 -279 -106 -321 -29 -58 -108 -301 -124 -380 -21 -104 -30
-453 -15 -554 11 -73 15 -154 7 -161 -2 -2 -23 -6 -47 -9 -25 -3 -46 -9 -48
-14 -2 -5 -12 -7 -22 -4 -11 3 -20 0 -20 -6 0 -6 -12 -11 -26 -11 -14 0 -23
-4 -20 -9 8 -12 -66 -23 -78 -11 -6 6 -21 10 -34 10 -13 0 -20 4 -17 10 3 5
-3 10 -14 10 -12 0 -21 -4 -21 -10 0 -6 -10 -6 -27 1 -17 6 -30 6 -36 0 -5 -5
-16 -7 -23 -4 -8 3 -22 2 -31 -2 -10 -4 -34 -8 -53 -10 -145 -12 -181 -16
-225 -25 -52 -10 -129 -21 -155 -22 -8 0 -49 -9 -90 -20 -41 -11 -84 -21 -95
-22 -11 0 -26 -5 -32 -9 -14 -9 -126 -36 -183 -44 -19 -3 -39 -9 -45 -13 -5
-5 -30 -11 -55 -14 -25 -4 -54 -11 -65 -16 -11 -5 -56 -21 -100 -35 -44 -15
-84 -31 -90 -35 -5 -4 -28 -13 -50 -20 -22 -7 -65 -24 -95 -38 -82 -36 -282
-131 -303 -143 -10 -6 -71 -38 -135 -71 -190 -99 -254 -133 -317 -168 -112
-61 -428 -227 -500 -263 -154 -76 -406 -197 -410 -197 -14 0 -389 -184 -450
-221 -200 -120 -333 -236 -449 -389 -155 -206 -239 -431 -239 -640 0 -182 52
-311 177 -436 64 -63 100 -90 166 -122 178 -88 335 -105 760 -82 201 10 265
10 445 -4 296 -22 483 -31 610 -31 101 1 119 4 224 40 l114 39 86 -13 c47 -7
110 -21 141 -31 30 -10 80 -23 110 -28 52 -10 230 -65 257 -80 9 -5 -5 -34
-48 -102 -33 -52 -103 -182 -155 -288 -138 -282 -186 -349 -329 -457 -101 -76
-152 -97 -343 -144 -103 -26 -194 -55 -245 -79 -45 -22 -100 -48 -122 -58 -97
-45 -175 -162 -175 -263 0 -37 6 -49 38 -81 63 -63 72 -64 517 -66 452 -1 697
8 800 30 87 18 185 61 267 117 55 38 240 192 308 257 14 13 67 55 118 94 58
43 99 83 112 106 10 20 19 33 20 29 0 -5 -5 -17 -10 -28 -13 -23 5 -26 35 -5
11 7 65 37 120 66 88 47 172 95 184 106 3 3 8 26 12 52 4 26 15 72 24 102 9
30 19 88 22 128 l6 72 -29 -1 c-16 0 -83 -19 -149 -42 l-120 -42 -11 -80 -12
-80 1 63 c0 35 -5 68 -11 74 -8 8 -54 7 -164 -1 -157 -11 -315 -15 -306 -6 4
4 114 14 370 32 47 3 92 9 99 14 9 5 5 40 -22 150 -41 177 -46 183 -118 169
-29 -5 -70 -9 -90 -9 -33 1 -31 2 14 10 110 19 152 31 283 83 76 29 145 56
155 60 17 5 17 8 2 37 -37 71 -87 139 -101 139 -11 0 -14 6 -10 16 3 9 6 18 6
20 0 3 4 2 10 -1 5 -3 33 14 62 37 30 24 100 74 156 112 100 69 102 70 87 93
-17 25 -6 30 25 11 17 -11 22 -9 35 10 9 12 21 22 26 22 6 0 1 -13 -10 -29
-12 -16 -21 -32 -21 -36 0 -3 24 -39 54 -79 30 -40 61 -87 70 -104 9 -17 20
-33 26 -37 10 -6 180 102 180 114 0 4 -27 50 -60 101 -33 51 -58 96 -55 98 6
7 1 13 70 -88 32 -47 60 -87 62 -89 6 -8 15 7 28 45 14 43 11 61 -13 69 -14 4
-62 66 -62 79 0 12 38 11 65 -2 111 -55 221 -174 277 -300 45 -101 42 -267 -7
-462 -27 -107 -30 -145 -15 -184 6 -17 6 -54 -2 -109 -8 -64 -16 -87 -34 -103
-34 -32 -48 -95 -30 -137 16 -38 12 -48 -24 -64 -36 -15 -50 -67 -38 -131 14
-68 4 -101 -31 -113 -39 -14 -62 -79 -40 -118 22 -38 -5 -108 -49 -126 -38
-17 -55 -75 -28 -103 14 -17 13 -25 -11 -100 -24 -71 -30 -82 -50 -82 -35 0
-50 -46 -24 -68 20 -17 20 -18 1 -77 -11 -33 -24 -79 -30 -102 -8 -31 -16 -42
-33 -45 -34 -5 -36 -60 -3 -77 15 -9 27 -26 31 -47 19 -103 183 -172 260 -110
23 18 38 23 62 19 35 -6 38 0 35 67 -1 14 20 66 47 115 40 74 53 91 75 93 58
7 22 36 -124 99 -63 28 -123 53 -132 56 -18 6 -15 37 3 37 28 0 162 -44 212
-69 l57 -30 14 32 c7 18 19 49 27 71 8 22 25 44 41 52 40 21 42 32 14 68 -27
36 -140 99 -243 136 -46 17 -60 26 -56 37 14 36 174 -11 259 -76 l52 -39 17
39 c13 27 27 41 50 49 41 13 49 33 31 69 -32 62 -169 151 -269 176 -29 8 -32
12 -18 34 22 34 174 -26 249 -98 23 -23 44 -41 46 -41 3 0 10 16 16 35 6 19
20 40 31 45 32 18 40 44 24 83 -19 45 -75 93 -180 152 -47 26 -82 51 -79 56
18 30 147 -22 215 -88 43 -41 48 -36 56 45 3 38 14 70 31 95 33 49 26 60 -63
99 -38 17 -80 38 -93 46 -20 13 -21 17 -8 24 17 10 163 -14 196 -32 15 -8 20
-6 25 11 4 13 12 18 21 15 38 -15 121 137 93 170 -17 21 -29 17 -29 -8 -1 -22
-1 -22 -12 -4 -7 13 -7 29 1 57 12 41 39 69 29 31 -4 -12 -3 -22 2 -22 4 0 13
-14 20 -31 16 -37 28 -27 54 44 10 26 28 60 41 75 24 29 41 75 50 135 7 41 11
44 36 21 17 -15 45 -11 34 6 -2 4 2 29 10 56 8 26 13 50 11 52 -6 6 -46 -50
-46 -64 0 -8 -7 -14 -16 -14 -12 0 -15 6 -10 23 4 12 13 45 20 72 19 75 40
117 73 151 23 22 35 48 47 104 10 41 17 90 17 108 -1 31 23 82 39 82 4 0 10
-10 13 -22 5 -18 8 -19 21 -8 21 16 20 70 0 85 -22 15 -11 48 22 70 25 16 26
16 19 -7 -7 -20 -6 -21 8 -10 17 14 57 128 57 162 0 16 -6 20 -32 20 -18 0
-42 -7 -52 -15 -11 -8 -30 -15 -43 -15 -21 0 -22 3 -13 20 7 14 7 26 1 39 -27
49 -149 121 -206 121 -38 -1 -45 -7 -128 -107 -38 -45 -90 -99 -116 -121 -59
-50 -140 -102 -159 -102 -8 0 -43 -14 -79 -32 -60 -29 -64 -33 -61 -61 3 -26
-1 -32 -32 -43 -32 -11 -80 -18 -54 -8 6 3 9 16 6 29 -2 15 -9 22 -16 18 -7
-4 -8 -3 -1 5 6 5 45 24 88 42 162 67 316 203 462 408 138 192 197 349 175
463 -12 61 -49 124 -80 134 -87 28 116 35 237 8 47 -10 120 -38 181 -69 l103
-52 9 24 c5 13 12 53 16 88 6 63 6 64 -22 79 -41 21 -130 46 -222 62 l-77 14
75 -5 c41 -3 108 -14 148 -25 85 -22 92 -23 92 -7 0 7 14 26 31 44 17 18 28
37 25 43 -12 19 -139 52 -222 58 -50 4 -108 1 -150 -7 -60 -12 -75 -19 -124
-64 -30 -28 -40 -34 -21 -14 18 20 31 40 28 45 -3 5 35 31 84 59 50 27 102 59
116 72 14 12 31 22 36 22 18 0 147 63 147 71 0 5 5 9 12 9 22 0 158 72 152 81
-3 5 1 9 8 9 16 0 185 64 195 73 10 11 63 8 63 -3 0 -5 -9 -10 -19 -10 -27 0
-161 -50 -161 -60 0 -5 6 -11 13 -13 6 -2 0 -3 -15 -1 -27 3 -148 -52 -148
-68 0 -4 20 -8 44 -8 63 0 195 -41 261 -81 50 -30 110 -86 181 -169 25 -29
120 -100 135 -100 13 0 12 4 -20 73 -41 89 -114 181 -185 232 -64 45 -180 105
-205 105 -8 0 -12 3 -8 6 10 10 97 -24 167 -65 120 -72 211 -181 261 -313 17
-46 37 -77 76 -115 29 -28 53 -59 53 -69 0 -14 -9 -10 -38 19 -45 44 -54 46
-47 10 3 -16 -2 -9 -11 15 -11 30 -31 54 -67 82 -28 21 -53 37 -55 35 -2 -2 4
-18 12 -37 9 -18 11 -24 4 -14 -63 94 -120 138 -198 152 l-35 6 40 -33 c53
-44 99 -92 126 -131 12 -19 -10 -1 -52 39 -113 111 -142 128 -212 125 -32 -1
-72 -8 -90 -16 l-32 -13 30 -13 c201 -88 265 -129 353 -225 58 -63 75 -92 103
-173 25 -71 24 -74 -8 -33 -26 33 -28 34 -33 12 -4 -19 -9 -16 -45 34 -50 69
-135 137 -220 176 -59 26 -232 79 -261 79 -16 0 -24 -106 -12 -157 11 -46 11
-46 122 -58 79 -9 195 -48 275 -92 70 -39 160 -124 186 -174 11 -20 -8 -5 -57
45 -58 58 -92 82 -160 115 -86 42 -234 81 -307 81 -30 0 -33 -2 -27 -22 3 -13
13 -54 22 -93 9 -38 20 -86 25 -106 l9 -36 84 -6 c164 -13 328 -84 420 -181
16 -17 44 -62 62 -101 37 -75 42 -66 19 30 -8 33 -14 63 -15 66 0 6 98 14 330
25 111 5 145 2 306 -25 100 -17 237 -37 305 -45 176 -21 535 -39 645 -34 51 3
92 2 90 -1 -2 -3 -20 -42 -41 -86 -30 -66 -36 -87 -31 -121 13 -95 188 -343
431 -609 45 -49 97 -108 116 -130 19 -22 44 -49 55 -60 28 -26 258 -286 306
-345 20 -25 98 -137 174 -250 217 -324 302 -406 479 -465 110 -36 247 -45 735
-46 395 -2 439 -1 478 16 39 16 42 20 42 54 -1 80 -76 183 -179 245 -80 49
-96 51 -184 23 -42 -14 -75 -22 -73 -18 5 7 62 36 90 45 34 11 5 23 -158 61
-260 61 -348 47 -493 -82 -141 -125 -166 -151 -160 -173 4 -17 0 -20 -24 -20
-22 0 -29 5 -29 20 0 11 -12 48 -26 82 -18 42 -29 95 -37 175 -13 130 -13 130
-120 173 -32 12 -56 24 -54 27 2 2 38 -7 80 -20 42 -14 79 -22 82 -19 9 9 -7
386 -17 406 -6 10 -56 40 -111 66 -123 59 -109 65 23 10 51 -22 95 -38 96 -37
2 1 8 67 14 145 10 123 9 147 -3 166 -14 20 -83 63 -244 152 l-52 28 -25 -23
c-14 -14 -28 -22 -31 -19 -3 3 1 11 10 18 22 18 19 50 -7 79 -14 14 -4 9 24
-13 56 -45 329 -189 340 -178 6 6 28 154 28 190 0 7 5 10 11 7 7 -5 8 -42 3
-116 -5 -88 -4 -109 7 -113 8 -2 55 -15 106 -30 51 -14 97 -26 103 -26 10 0 8
45 -6 138 -3 19 -1 32 4 28 5 -3 12 -40 16 -82 3 -43 8 -80 11 -83 3 -2 12 2
21 10 12 12 13 21 4 43 -5 15 -10 66 -10 113 0 74 -2 84 -16 79 -9 -3 -18 -6
-20 -6 -2 0 -5 -12 -5 -27 -1 -21 -3 -23 -6 -8 -3 11 -13 25 -22 32 -15 12
-15 13 0 7 10 -3 20 0 24 5 3 6 10 9 15 6 11 -7 25 14 40 60 15 44 76 107 190
193 41 31 80 62 85 68 16 18 172 144 178 144 3 0 46 27 95 60 49 33 125 78
168 101 44 23 86 47 94 54 31 28 239 139 340 182 58 25 176 69 263 98 l157 53
6 -27 c3 -14 9 -35 14 -47 4 -11 16 -74 25 -139 32 -218 90 -457 188 -777 49
-156 118 -417 117 -442 0 -12 -3 -40 -6 -63 -4 -27 0 -59 10 -90 20 -60 21
-181 1 -207 -19 -25 -19 -96 0 -166 20 -73 19 -145 -1 -176 -29 -43 -35 -103
-17 -162 20 -66 10 -125 -23 -130 -18 -3 -24 -16 -39 -85 -13 -57 -30 -101
-58 -144 -39 -63 -50 -72 -62 -53 -11 17 -34 -8 -28 -30 4 -14 -12 -39 -53
-85 -47 -51 -64 -64 -81 -60 -25 6 -47 -23 -33 -44 11 -19 -86 -162 -106 -154
-18 7 -28 -20 -15 -44 14 -28 -66 -186 -92 -179 -23 6 -43 -30 -27 -49 20 -24
-18 -79 -55 -80 -23 0 -31 -5 -33 -21 -2 -14 -18 -28 -45 -40 -23 -11 -44 -18
-47 -18 -3 1 -17 4 -31 8 -21 4 -28 1 -37 -18 -8 -19 -24 -27 -67 -36 -32 -7
-72 -9 -91 -5 -32 6 -34 4 -34 -23 0 -16 -7 -35 -15 -42 -23 -19 -18 -62 15
-128 29 -60 64 -87 79 -63 5 8 25 4 65 -14 31 -14 65 -25 76 -25 11 0 24 -9
30 -20 12 -23 58 -27 66 -6 3 8 27 17 57 21 29 4 67 11 86 15 21 6 41 5 53 -1
27 -14 78 7 75 30 -3 26 145 162 163 151 19 -12 52 18 45 40 -7 24 39 45 55
25 15 -19 56 0 64 29 6 19 7 20 17 4 9 -17 13 -17 47 -3 20 9 39 19 42 24 3 5
14 11 25 15 12 3 48 29 80 56 73 62 129 90 178 90 21 0 54 7 74 15 45 19 51
14 25 -19 -29 -37 -36 -89 -17 -125 22 -43 20 -88 -5 -96 -24 -8 -28 -60 -5
-72 24 -14 0 -133 -26 -133 -23 0 -27 -48 -4 -56 25 -10 19 -78 -10 -112 -27
-33 -34 -99 -13 -120 10 -10 8 -19 -6 -43 -22 -37 -17 -100 11 -131 25 -28 83
-56 144 -69 94 -20 169 23 169 96 0 26 -8 40 -37 64 -40 32 -28 42 22 19 22
-10 29 -8 50 12 23 22 54 95 44 104 -2 2 -26 20 -52 40 -49 37 -53 47 -7 21
35 -20 40 -19 40 14 0 29 22 61 41 61 5 0 9 4 9 9 0 11 -37 26 -140 55 l-85
24 51 1 c28 1 72 -5 97 -13 l46 -14 12 60 c10 50 16 61 38 70 25 9 25 10 7 24
-11 8 -26 14 -33 14 -7 0 -39 9 -70 20 -32 11 -71 20 -88 20 -21 0 -26 3 -16
9 11 7 11 9 0 14 -22 10 133 -5 159 -14 35 -13 42 -11 42 15 0 13 7 29 16 37
21 17 44 64 44 89 0 28 -53 74 -124 109 -32 16 -54 31 -49 34 19 12 83 -14
119 -48 l37 -35 24 26 c19 21 29 24 56 19 37 -8 97 -42 97 -56 0 -4 11 -32 24
-61 13 -29 27 -64 31 -77 4 -13 19 -35 33 -48 23 -21 24 -26 12 -47 -19 -37
-5 -91 30 -116 31 -22 37 -48 20 -80 -15 -28 7 -106 35 -128 17 -14 22 -25 18
-45 -7 -35 31 -112 68 -139 16 -12 29 -27 29 -34 0 -25 51 -73 95 -90 56 -21
136 -15 173 13 76 56 92 131 40 189 -29 30 -43 37 -106 47 -40 7 -70 16 -66
20 13 13 98 7 128 -8 15 -8 30 -15 32 -15 12 0 1 47 -16 75 -26 42 -83 65
-157 65 -41 0 -54 3 -46 11 11 11 100 8 141 -6 19 -6 22 -4 22 17 0 28 -23 64
-52 79 -12 6 -53 15 -92 19 l-71 8 83 -1 c79 -2 82 -1 82 21 0 12 5 31 11 41
18 28 3 69 -32 87 -33 17 -186 24 -226 10 -14 -4 -23 -3 -23 3 0 25 170 50
219 33 30 -11 31 -10 31 19 0 17 7 44 16 61 35 68 -35 117 -169 118 -74 0 -77
1 -62 17 13 13 35 17 96 17 57 0 80 3 84 14 4 10 16 4 47 -21 24 -19 52 -36
63 -39 15 -2 21 -12 23 -38 4 -37 32 -76 64 -86 28 -8 41 -40 26 -63 -16 -26
4 -71 30 -71 24 0 53 -73 46 -111 -6 -28 19 -89 37 -89 18 0 129 -112 129
-130 0 -34 72 -80 126 -80 16 0 36 -13 55 -35 26 -29 38 -35 70 -35 22 0 54 6
72 14 58 24 127 120 127 176 0 12 -12 33 -26 47 -23 23 -31 25 -79 19 -60 -7
-81 6 -35 23 36 12 38 30 8 58 -29 26 -83 41 -128 36 -33 -4 -34 -3 -16 11 11
9 24 16 29 16 4 0 6 8 2 19 -3 10 -1 30 4 44 9 22 7 26 -21 38 -36 15 -87 4
-180 -38 -31 -14 -63 -23 -70 -21 -15 6 136 83 182 93 29 6 31 10 24 33 -8 32
-8 50 1 79 17 54 -118 47 -236 -12 -28 -15 -54 -24 -57 -20 -19 18 124 99 196
110 38 6 42 9 36 28 -6 19 -5 20 9 8 9 -7 14 -17 11 -23 -3 -5 6 -18 20 -29
36 -28 59 -76 52 -105 -9 -33 11 -67 34 -61 12 3 22 -4 31 -20 7 -14 35 -43
61 -65 35 -29 47 -45 43 -59 -7 -20 28 -45 46 -33 14 9 139 -54 139 -70 0 -20
36 -26 57 -10 10 7 35 18 56 24 20 6 43 21 51 33 16 25 29 137 16 137 -4 0
-34 -25 -66 -55 -32 -30 -62 -55 -66 -55 -17 0 -6 22 38 76 l46 56 -28 25
c-16 13 -39 31 -51 39 -12 9 -19 22 -16 30 14 36 -22 7 -79 -65 -35 -43 -68
-76 -75 -74 -7 3 11 34 47 80 l60 75 -31 29 c-17 16 -33 29 -36 29 -2 0 -20
-12 -38 -26 -19 -14 -44 -24 -56 -22 -18 3 -15 8 27 37 48 34 83 69 84 84 0 4
-10 7 -23 7 -19 0 -29 11 -47 53 -13 28 -26 54 -27 56 -2 3 -16 -7 -31 -20
-47 -43 -83 -62 -95 -50 -13 13 17 47 87 99 44 32 47 37 28 42 -26 6 -136 126
-127 140 3 5 2 10 -3 10 -11 0 -115 -109 -139 -146 -14 -22 -33 -24 -33 -5 0
5 25 39 55 77 30 38 55 74 55 80 0 6 -26 26 -57 45 -45 27 -59 40 -61 62 -2
15 -6 27 -8 27 -35 0 -164 -112 -164 -142 0 -14 -5 -18 -16 -14 -38 15 -62 16
-102 8 -25 -6 -44 -6 -48 -1 -6 11 56 39 85 39 18 0 16 7 -21 78 -78 148 -112
180 -223 211 -81 22 -175 10 -175 -23 0 -21 76 -182 89 -191 7 -4 18 -1 26 5
8 6 20 8 26 4 8 -4 9 -3 5 5 -10 16 39 58 84 72 36 11 90 -1 90 -19 0 -5 -12
-7 -27 -5 -36 5 -130 -43 -156 -79 -24 -32 -24 -65 -3 -136 12 -43 13 -64 5
-103 -6 -27 -13 -49 -15 -49 -3 0 -19 7 -37 17 -23 11 -56 16 -112 15 -69 0
-77 2 -62 13 40 29 109 29 181 0 17 -7 18 -4 11 44 -15 110 -32 152 -82 203
-60 61 -114 83 -188 75 -62 -6 -65 6 -6 24 55 16 103 4 161 -42 28 -22 50 -34
50 -26 0 32 -88 183 -119 204 -42 28 -132 47 -190 39 -45 -6 -85 -31 -75 -47
3 -5 5 -49 5 -99 0 -77 2 -91 18 -100 19 -9 19 -11 0 -60 -10 -28 -19 -59 -19
-69 0 -28 -32 -121 -41 -121 -5 0 -6 28 -3 62 11 115 6 123 -135 195 -105 54
-118 63 -90 63 19 0 76 -20 129 -45 65 -30 98 -41 105 -34 14 14 11 124 -4
177 -16 58 -44 73 -143 79 -63 3 -101 0 -157 -15 -83 -23 -83 -12 0 17 72 26
120 30 198 20 35 -5 66 -8 68 -6 5 5 -45 148 -58 163 -17 21 -107 26 -194 11
-44 -8 -81 -13 -83 -12 -12 11 116 39 180 39 43 1 78 3 78 4 0 13 -77 125 -91
133 -10 5 -51 10 -91 10 -86 2 -51 16 45 18 51 1 57 3 57 23 0 12 8 45 17 74
9 30 13 57 10 61 -4 4 -42 12 -85 19 l-77 13 90 -2 90 -2 17 70 c12 49 14 73
6 82 -13 17 -73 33 -121 33 -21 0 -36 4 -33 8 3 5 33 5 68 0 35 -4 72 -9 83
-10 17 -3 21 5 26 52 3 30 9 72 13 92 6 35 5 39 -31 62 -21 14 -63 32 -93 41
l-55 15 48 -5 c27 -3 69 -14 93 -24 27 -12 46 -16 50 -10 3 6 8 63 11 127 5
106 4 119 -13 133 -24 20 -133 57 -197 65 -28 4 -43 10 -36 14 16 10 79 2 168
-21 40 -11 76 -17 79 -15 2 3 7 69 10 146 3 104 1 147 -8 165 -28 52 -211 101
-320 84 -47 -7 -71 18 -44 45 13 14 17 13 34 -4 16 -16 33 -19 107 -19 67 1
101 -4 143 -20 30 -12 61 -21 68 -21 27 0 -1 294 -32 328 -25 28 -90 42 -198
42 -77 1 -90 3 -73 13 23 13 132 16 218 4 l57 -7 0 30 c0 48 -50 382 -61 401
-14 27 -77 44 -168 44 -80 0 -82 0 -50 14 24 9 59 12 122 8 63 -4 87 -3 87 6
0 7 -18 106 -40 221 -26 135 -46 216 -56 227 -20 23 -74 39 -129 39 -34 1 -37
2 -21 12 12 6 42 8 82 4 58 -6 64 -5 64 12 0 32 -52 296 -62 315 -5 10 -22 20
-39 24 -37 7 -37 20 1 28 19 4 30 13 30 24 0 29 -51 274 -61 293 -10 19 -68
38 -117 38 -20 0 -31 4 -27 10 3 6 25 10 48 10 23 0 48 4 56 9 20 13 10 63
-34 162 -114 258 -140 281 -270 245 -27 -8 -58 -17 -69 -21 -16 -7 -17 -5 -8
11 10 20 80 46 155 59 20 3 37 12 37 19 0 32 -91 282 -107 294 -17 13 -115 12
-214 -3 l-34 -5 40 19 c22 11 73 25 113 32 72 12 73 12 67 38 -3 14 -31 79
-61 144 -30 64 -54 121 -54 125 0 13 -43 49 -66 56 -35 11 -151 -12 -206 -40
-54 -27 -77 -24 -40 6 35 28 130 61 195 67 44 5 57 10 57 22 0 27 -145 315
-170 336 -45 40 -196 16 -304 -50 -84 -50 -94 -32 -13 23 56 39 141 69 216 78
34 3 63 10 66 13 4 8 -145 252 -174 285 -13 15 -26 17 -71 13 -79 -8 -177 -41
-237 -81 -59 -39 -81 -33 -32 9 52 43 164 90 267 110 17 4 32 9 32 13 0 3 -45
81 -100 173 -69 114 -108 169 -122 173 -37 9 -109 -13 -198 -61 -85 -46 -85
-46 -55 -14 31 34 147 94 203 106 17 4 32 13 32 20 0 16 -89 166 -144 243 -21
29 -45 52 -55 52 -9 0 -48 -18 -86 -40 l-70 -40 40 35 c22 20 52 43 68 52 15
10 27 22 27 28 0 14 -38 50 -114 106 -32 24 -69 52 -82 62 -22 17 -26 17 -58
2 -18 -9 -53 -33 -77 -52 -38 -31 -35 -28 14 23 31 33 57 65 57 71 0 7 -17 24
-37 38 -29 19 -50 25 -95 25 -75 0 -101 -11 -132 -57 l-26 -38 6 33 7 34 -44
-22 c-46 -24 -176 -118 -197 -143 -7 -8 -18 -32 -26 -53 -11 -29 -15 -33 -15
-16 -1 30 -12 28 -47 -9 -43 -46 -138 -106 -204 -130 -69 -25 -71 -27 -95
-194 -9 -60 -35 -199 -57 -309 -22 -109 -36 -201 -31 -206 4 -4 42 -16 83 -26
65 -16 71 -19 45 -24 -16 -3 -43 -3 -60 2 -43 11 -87 9 -105 -5 -8 -7 -46 -54
-84 -104 -38 -51 -71 -93 -73 -93 -2 0 29 47 68 106 40 58 68 108 63 113 -5 4
-41 20 -80 35 -74 29 -140 76 -194 139 -33 38 -65 47 -90 25 -8 -7 -6 -3 4 10
19 22 19 23 0 62 -10 22 -22 40 -26 40 -4 0 -12 9 -18 21 -10 18 -9 19 7 11
10 -6 25 -22 33 -37 7 -14 21 -24 29 -23 16 3 51 105 97 283 39 149 39 152 14
160 -12 4 -51 27 -87 52 -37 25 -79 50 -94 55 -28 10 -44 33 -33 50 3 5 13 0
21 -11 8 -12 20 -21 26 -21 7 0 36 -16 66 -36 72 -49 120 -69 125 -52 3 7 7
104 10 215 l7 202 -30 -10 c-16 -6 -46 -9 -68 -7 -35 3 -38 6 -41 36 -4 40
-18 42 -27 2 -4 -16 -11 -33 -17 -37 -8 -4 -9 0 -3 13 23 56 45 140 45 172 -1
63 -53 154 -79 138 -16 -10 -75 -104 -155 -249 -91 -163 -116 -218 -116 -258
0 -43 70 -191 87 -185 10 4 11 1 3 -14 -5 -10 -10 -30 -10 -44 0 -16 -6 -26
-15 -26 -8 0 -21 -13 -30 -29 -8 -17 -20 -33 -26 -37 -14 -8 -9 1 33 63 l28
41 -46 96 c-26 53 -50 96 -54 96 -15 0 -126 -123 -180 -199 -209 -298 -216
-313 -176 -366 30 -39 31 -42 11 -42 -9 0 -30 18 -46 39 -30 37 -32 38 -95 38
-75 0 -85 16 -16 25 68 9 72 11 72 43 0 35 -45 189 -61 208 -6 8 -30 14 -53
15 l-41 1 33 8 c56 13 57 18 22 142 -18 62 -37 121 -42 130 -4 9 -29 23 -56
31 l-47 14 43 7 c23 4 42 13 42 19 0 28 -32 194 -41 219 -19 47 -63 59 -218
59 -122 -1 -140 2 -155 18 -12 13 -14 24 -8 42 5 13 12 49 16 79 4 30 25 104
47 164 22 60 39 115 37 123 -2 9 -22 -3 -61 -38 -32 -28 -60 -49 -63 -46 -7 6
9 26 130 164 19 22 19 22 -21 75 -61 82 -67 115 -11 61 l28 -27 1 80 1 79 21
-62 c11 -35 24 -63 27 -63 9 0 50 218 50 263 l0 38 -62 -3 c-56 -3 -63 -5 -68
-27 -5 -23 -6 -23 -23 -6 -10 10 -26 15 -37 12 -25 -7 -25 4 1 54 l20 41 22
-20 c37 -34 73 -44 110 -28 18 7 37 19 44 27 6 8 21 68 32 134 12 66 32 180
45 253 13 73 21 134 17 136 -3 2 -40 -4 -81 -15 -88 -22 -126 -23 -221 -8 -38
7 -72 9 -76 6 -3 -4 20 -102 51 -218 31 -116 54 -214 51 -217 -3 -3 -5 2 -5
11 0 8 -5 17 -11 19 -5 2 -36 86 -68 188 -31 101 -61 185 -67 187 -5 2 -45
-24 -88 -57 -43 -33 -80 -60 -82 -60 -8 0 11 36 26 50 9 8 32 29 51 45 49 43
69 75 69 109 0 16 -23 103 -51 193 -47 155 -60 216 -46 229 3 3 34 -81 68
-188 40 -123 71 -202 86 -219 69 -76 301 -74 387 4 32 30 37 42 74 207 56 241
66 300 53 313 -8 8 -57 5 -169 -9 -133 -16 -185 -18 -317 -11 -86 5 -164 6
-171 3 -8 -3 -14 -20 -14 -43 l-1 -38 -28 34 c-25 30 -27 39 -19 64 9 25 14
28 37 22 14 -3 96 -10 181 -14 128 -7 178 -5 287 10 151 21 212 34 223 46 5 4
20 60 34 123 36 166 37 175 51 280 11 81 11 97 -1 110 -12 12 -56 16 -222 20
-200 5 -204 5 -117 14 50 6 149 9 222 9 l131 -1 6 46 c21 183 28 263 23 269
-9 8 -242 69 -382 99 l-119 25 -84 -21 c-97 -24 -122 -20 -35 6 76 23 83 29
83 75 0 44 4 43 -105 29z m-388 -222 c-3 -8 -6 -5 -6 6 -1 11 2 17 5 13 3 -3
4 -12 1 -19z m17 -31 c-3 -8 -11 -14 -19 -14 -21 0 -19 15 3 20 9 3 18 5 19 6
1 0 0 -5 -3 -12z m3 -59 c-3 -8 -6 -5 -6 6 -1 11 2 17 5 13 3 -3 4 -12 1 -19z
m132 -1592 c-15 -13 -49 -25 -49 -17 0 5 8 12 18 14 24 6 36 8 31 3z m-712
-278 c-2 -18 -4 -6 -4 27 0 33 2 48 4 33 2 -15 2 -42 0 -60z m136 19 c15 -18
69 -86 121 -152 52 -66 105 -131 118 -145 21 -23 136 -128 164 -150 22 -16 89
-50 100 -50 22 0 83 -79 90 -116 7 -37 5 -40 -52 -91 -163 -148 -238 -163
-330 -66 -98 104 -206 320 -260 518 -52 196 -51 303 5 288 9 -2 29 -19 44 -36z
m-126 -149 c-2 -18 -4 -6 -4 27 0 33 2 48 4 33 2 -15 2 -42 0 -60z m10 -60
c-3 -8 -6 -5 -6 6 -1 11 2 17 5 13 3 -3 4 -12 1 -19z m943 15 c0 -5 -7 -16
-15 -27 -13 -17 -15 -17 -30 -2 -9 9 -13 20 -10 26 7 12 55 14 55 3z m-231
-218 c112 -93 147 -129 102 -106 -17 9 -163 138 -250 220 -34 32 -35 32 -4 10
18 -13 86 -69 152 -124z m-1219 58 c-14 -3 -32 -10 -40 -16 -13 -11 -13 -10
-1 6 7 9 25 16 40 16 l26 -2 -25 -4z m-100 -58 c0 -2 -10 -9 -22 -15 -22 -11
-22 -10 -4 4 21 17 26 19 26 11z m-140 -80 c0 -2 -22 -16 -50 -30 -27 -14 -50
-23 -50 -20 0 2 21 16 48 29 53 28 52 28 52 21z m980 -255 c24 -30 68 -81 99
-112 30 -32 52 -61 48 -65 -13 -12 -165 164 -199 232 -13 25 -4 15 52 -55z
m2070 -619 c-40 -64 -51 -67 -15 -3 16 26 30 51 32 55 3 5 7 6 10 4 2 -3 -10
-28 -27 -56z m-3720 -78 c31 -22 50 -41 84 -86 18 -24 37 -37 52 -37 21 0 41
-16 32 -26 -3 -2 -28 2 -56 8 -35 9 -52 18 -52 28 0 9 -23 42 -51 73 -51 57
-54 72 -9 40z m3668 -5 c-8 -13 -27 -44 -42 -70 -32 -54 -45 -65 -20 -15 22
42 65 107 71 107 3 0 -1 -10 -9 -22z m-3313 -243 c11 -9 -2 -4 -30 11 -27 15
-54 32 -60 37 -16 15 68 -29 90 -48z m145 -101 c0 -3 -20 9 -45 26 -25 17 -45
33 -45 36 0 3 20 -9 45 -26 25 -17 45 -33 45 -36z m-689 36 c35 -11 88 -33
118 -50 44 -24 67 -30 120 -31 36 -1 91 -4 121 -9 52 -7 51 -7 -34 -9 -50 0
-86 -5 -80 -9 5 -4 45 -23 89 -42 81 -34 194 -95 230 -125 11 -9 0 -4 -25 10
-89 53 -270 135 -329 151 -64 16 -123 11 -228 -21 -61 -19 -78 -18 -35 0 19 8
63 21 100 28 36 7 68 19 70 25 4 13 -81 58 -158 83 -30 10 -48 18 -39 18 9 1
45 -8 80 -19z m3622 -91 c-10 -17 -24 -36 -32 -42 -8 -7 -2 7 14 31 32 49 45
57 18 11z m-3150 -16 c-7 -2 -21 -2 -30 0 -10 3 -4 5 12 5 17 0 24 -2 18 -5z
m77 -13 c20 -6 21 -8 5 -8 -11 0 -29 3 -40 8 -25 11 1 11 35 0z m366 -131 c19
-22 19 -22 -3 -10 -24 12 -39 31 -25 31 5 0 17 -10 28 -21z m-236 -106 c0 -7
-35 16 -65 42 -23 20 -18 19 18 -6 26 -18 47 -34 47 -36z m4077 45 c-3 -8 -6
-5 -6 6 -1 11 2 17 5 13 3 -3 4 -12 1 -19z m-4663 -132 c61 -18 127 -40 146
-49 33 -14 39 -14 110 9 127 40 267 29 395 -31 95 -44 128 -73 40 -34 -96 42
-177 61 -260 62 -71 0 -185 -28 -168 -43 4 -4 43 -19 86 -34 112 -39 220 -108
312 -201 161 -160 271 -359 300 -542 4 -23 19 -61 34 -85 65 -103 48 -88 -37
32 -33 48 -78 102 -100 122 -84 76 -203 128 -339 149 -68 10 -90 10 -152 -4
-40 -10 -77 -14 -82 -11 -15 9 -10 24 6 18 8 -4 33 1 55 10 22 9 63 16 90 16
28 0 50 4 50 10 0 21 -141 115 -255 170 -142 69 -204 89 -305 97 -71 5 -78 4
-105 -20 -29 -25 -29 -25 -40 -4 -5 12 -21 24 -35 28 -22 6 -20 7 11 8 29 1
51 13 105 59 38 31 113 83 167 116 53 32 97 64 97 72 0 25 -97 61 -284 105
l-81 19 64 -6 c35 -3 114 -20 175 -38z m4969 12 c13 -18 58 -99 100 -180 41
-81 126 -225 189 -320 131 -199 208 -321 208 -332 0 -4 -5 -4 -12 0 -8 5 -9 2
-5 -10 6 -14 2 -17 -26 -14 -17 2 -30 7 -27 11 5 9 -66 48 -84 46 -6 0 -5 -3
2 -6 22 -9 13 -20 -13 -15 -15 2 -25 0 -25 -7 0 -6 -11 -11 -25 -11 -16 0 -25
6 -25 15 0 8 -5 15 -11 15 -5 0 -8 4 -4 9 3 6 -3 15 -14 20 -24 13 -44 14 -37
2 4 -5 -4 -7 -16 -3 -15 4 -19 2 -14 -7 5 -8 3 -12 -5 -10 -27 3 -40 -1 -34
-11 3 -5 -1 -10 -9 -10 -9 0 -16 4 -16 9 0 5 -11 12 -25 15 -14 4 -23 11 -20
16 10 17 -36 22 -60 6 -13 -9 -40 -16 -60 -16 -33 0 -40 7 -36 38 1 6 -6 12
-16 12 -26 0 -94 -25 -87 -32 3 -3 1 -9 -5 -13 -6 -3 -11 1 -11 11 0 16 -1 16
-16 -2 -8 -10 -13 -14 -10 -7 4 6 1 15 -5 18 -5 4 -8 12 -6 19 3 6 -6 11 -19
11 -13 0 -24 -4 -24 -9 0 -5 -3 -6 -7 -3 -3 4 -12 2 -19 -4 -8 -6 -20 -9 -29
-5 -8 3 -14 2 -14 -2 3 -19 -2 -23 -15 -13 -10 9 -15 8 -20 -4 -8 -23 -24 -18
-22 8 1 19 -4 22 -29 20 -49 -4 -54 -6 -49 -15 3 -4 0 -8 -6 -8 -6 0 -8 -4 -5
-10 4 -6 -5 -10 -19 -10 -14 0 -26 -4 -26 -10 0 -5 -7 -10 -16 -10 -18 0 -3
21 158 210 54 63 119 145 145 181 27 37 69 95 95 129 48 63 68 111 68 166 0
38 57 154 75 154 8 0 25 -15 38 -32z m-3442 -492 c26 -86 17 -80 -15 9 -38
106 -40 114 -20 80 10 -16 25 -57 35 -89z m-314 24 c32 -27 63 -48 70 -46 6 3
14 -6 17 -19 6 -23 79 -91 123 -114 12 -6 42 -11 67 -11 34 0 48 5 59 21 10
14 16 16 19 8 11 -34 188 121 188 165 0 9 8 16 20 16 12 0 17 -5 14 -13 -2 -7
14 -38 37 -68 l41 -54 -40 43 c-22 23 -44 42 -48 42 -5 0 -22 -19 -39 -41 -32
-43 -94 -104 -133 -129 l-23 -15 46 -120 c58 -149 115 -305 115 -314 -1 -15
-21 33 -69 164 -29 77 -63 168 -77 201 l-26 62 -62 -2 c-54 -1 -68 3 -106 29
-23 17 -53 36 -66 43 -13 7 -24 18 -24 24 0 6 -39 48 -87 94 -98 93 -106 111
-16 34z m-101 -108 c25 -52 44 -95 42 -97 -2 -2 -31 52 -66 118 -34 67 -54
111 -43 97 12 -14 41 -67 67 -118z m-966 -26 c78 -27 67 -27 -35 1 -33 8 -103
19 -155 24 l-95 8 105 -4 c82 -2 122 -8 180 -29z m1413 14 c3 -11 1 -18 -4
-14 -5 3 -9 12 -9 20 0 20 7 17 13 -6z m367 -70 l24 -35 -25 22 c-13 12 -33
37 -43 55 -19 33 -19 33 0 13 11 -11 30 -36 44 -55z m-1375 -51 c11 -17 -1
-21 -15 -4 -8 9 -8 15 -2 15 6 0 14 -5 17 -11z m639 -49 c5 -17 4 -20 -2 -10
-5 8 -13 26 -16 40 -5 17 -4 20 2 10 5 -8 13 -26 16 -40z m-644 -6 c0 -3 -4
-3 -9 0 -5 4 -11 0 -14 -6 -3 -9 -10 -8 -23 6 -11 10 -13 16 -6 12 6 -4 12 -2
12 4 0 8 6 8 20 0 11 -6 20 -13 20 -16z m1470 -6 c0 -6 -6 -5 -15 2 -8 7 -15
14 -15 16 0 2 7 1 15 -2 8 -4 15 -11 15 -16z m2564 -23 c3 -8 1 -15 -4 -15 -6
0 -10 7 -10 15 0 8 2 15 4 15 2 0 6 -7 10 -15z m-3996 -11 c5 3 16 -2 23 -11
12 -15 11 -16 -8 -11 -34 9 -28 -8 7 -21 32 -11 35 -28 10 -48 -12 -10 -12
-12 -1 -13 8 0 20 8 27 18 12 15 13 15 14 0 0 -9 6 -19 13 -22 9 -5 9 -7 -1
-12 -10 -5 -10 -9 -1 -20 6 -8 8 -14 4 -14 -5 0 -1 -8 8 -17 31 -35 60 -146
72 -277 3 -32 22 -165 41 -295 39 -256 59 -611 36 -625 -6 -4 -30 3 -52 14
-34 17 -39 24 -30 36 7 8 18 14 26 14 7 0 12 9 11 20 -2 23 -17 27 -17 4 0 -8
-4 -12 -10 -9 -5 3 -10 1 -10 -4 0 -6 -7 -11 -15 -11 -8 0 -15 5 -15 11 0 5 5
7 10 4 6 -3 10 1 10 10 0 9 4 14 8 11 5 -3 18 3 29 14 21 19 21 19 28 -3 3
-13 8 -17 11 -10 3 7 0 21 -6 32 -8 15 -8 21 0 21 14 0 -9 24 -30 33 -10 4 -8
6 7 6 12 1 23 -5 26 -11 2 -7 8 -10 12 -5 5 4 3 13 -3 19 -7 7 -12 22 -12 34
0 12 -6 25 -12 27 -10 4 -10 8 1 15 12 9 12 16 -2 50 -9 22 -13 43 -9 47 4 4
-2 5 -13 3 -14 -2 -20 3 -20 17 0 11 6 19 13 18 6 -2 12 6 12 18 0 13 -4 18
-12 13 -7 -4 -8 -3 -4 5 4 6 2 19 -5 27 -7 8 -11 35 -11 59 1 25 -2 45 -7 45
-10 0 -22 32 -26 70 -9 80 -24 132 -42 145 -18 13 -38 76 -36 113 0 6 -3 12
-8 12 -5 0 -9 8 -9 17 0 21 12 10 35 -32 13 -23 16 -25 12 -8 -3 13 -1 25 4
28 14 10 -1 33 -27 39 -13 4 -25 14 -25 24 -4 44 -7 59 -18 80 -17 31 4 28 25
-4 14 -21 15 -27 4 -34 -11 -7 -10 -11 3 -24 20 -20 41 -21 33 -1 -21 52 -21
51 -3 36 10 -7 17 -9 17 -3 0 6 -5 12 -11 14 -10 3 -49 109 -49 135 0 7 -5 13
-11 13 -6 0 -8 7 -5 17 4 10 4 14 0 11 -10 -11 -46 12 -41 26 3 7 -2 23 -10
37 -10 17 -13 18 -8 4 5 -16 4 -17 -6 -8 -7 7 -14 18 -15 25 -2 7 -6 23 -9 34
-5 18 -1 24 22 31 18 7 30 7 34 0 4 -5 11 -7 17 -3z m1436 0 c3 -8 2 -12 -4
-9 -6 3 -10 10 -10 16 0 14 7 11 14 -7z m3353 -40 c-3 -3 -12 -4 -19 -1 -8 3
-5 6 6 6 11 1 17 -2 13 -5z m-3380 -36 c-3 -8 -6 -5 -6 6 -1 11 2 17 5 13 3
-3 4 -12 1 -19z m-36 -92 c-17 -35 -31 -68 -31 -74 0 -5 -7 -15 -15 -22 -8 -7
-15 -10 -15 -6 0 12 84 175 89 171 2 -3 -10 -33 -28 -69z m-1363 -31 c-3 -3
-13 7 -23 22 l-17 28 23 -22 c12 -12 20 -25 17 -28z m1257 -133 l-39 -37 35
41 c19 22 36 39 39 37 2 -2 -13 -20 -35 -41z m-1171 -297 c3 -8 1 -15 -4 -15
-6 0 -10 7 -10 15 0 8 2 15 4 15 2 0 6 -7 10 -15z m-3 -48 c-10 -9 -11 -8 -5
6 3 10 9 15 12 12 3 -3 0 -11 -7 -18z m19 -62 c0 -5 -5 -3 -10 5 -5 8 -10 20
-10 25 0 6 5 3 10 -5 5 -8 10 -19 10 -25z m25 -105 c3 -6 -1 -7 -9 -4 -18 7
-21 14 -7 14 6 0 13 -4 16 -10z m45 -370 c-18 -12 -30 -13 -30 -2 0 4 10 9 22
9 18 2 20 0 8 -7z m130 -305 c17 -9 30 -18 30 -21 0 -4 -59 23 -69 32 -10 9
13 3 39 -11z m160 -120 c30 -30 52 -55 49 -55 -2 0 -29 25 -59 55 -30 30 -52
55 -49 55 2 0 29 -25 59 -55z m-3508 -261 c-19 -14 -52 2 -52 25 0 11 4 9 14
-5 8 -11 18 -15 23 -10 4 5 2 11 -4 13 -7 3 -13 9 -13 14 0 6 11 2 24 -8 21
-16 21 -19 8 -29z m-282 4 c0 -19 2 -20 10 -8 5 8 10 10 10 4 0 -15 -18 -29
-57 -42 -20 -7 -33 -7 -33 -1 0 5 6 9 13 10 10 0 10 2 0 6 -7 2 -13 9 -13 14
0 4 7 6 15 3 10 -4 14 -1 12 7 -2 8 -2 11 0 7 9 -15 35 -8 29 7 -3 8 -1 15 4
15 6 0 10 -10 10 -22z m-230 -19 c0 -16 -39 -36 -69 -35 -8 1 -16 12 -18 26
-2 18 -1 21 6 11 11 -18 48 -24 56 -11 3 6 -1 10 -9 10 -9 0 -16 4 -16 10 0 5
11 9 25 8 16 -2 25 -8 25 -19z m150 -14 c0 -36 -30 -48 -60 -25 -27 20 -21 34
15 43 39 9 45 7 45 -18z m210 11 c0 -8 -6 -17 -12 -19 -10 -4 -10 -6 0 -6 8
-1 16 8 19 19 7 26 19 25 33 0 9 -17 7 -22 -17 -31 -15 -6 -37 -16 -47 -21
-15 -8 -18 -7 -13 6 4 10 1 16 -9 16 -10 0 -14 -6 -11 -14 3 -8 -1 -17 -9 -20
-8 -3 -14 -1 -14 4 0 5 -6 7 -13 4 -9 -3 -13 3 -12 18 1 17 8 23 27 23 14 1
33 9 42 18 21 21 36 22 36 3z m190 -20 c0 -3 -4 -8 -10 -11 -5 -3 -10 -1 -10
4 0 6 5 11 10 11 6 0 10 -2 10 -4z m-1050 -36 c0 -5 -11 -17 -24 -25 -20 -14
-28 -14 -45 -3 -12 7 -21 17 -21 22 0 4 7 3 15 -4 13 -11 20 -11 40 0 13 7 22
18 18 23 -3 6 -1 7 5 3 7 -4 12 -11 12 -16z m210 11 c0 -13 -65 -52 -89 -54
-11 -1 -23 -7 -25 -14 -8 -20 -34 -15 -46 8 -14 25 -11 28 23 31 14 1 24 4 22
7 -3 2 0 10 6 18 13 15 109 18 109 4z m138 -3 c19 -19 15 -24 -35 -56 -63 -39
-93 -48 -93 -28 0 9 -7 16 -15 16 -8 0 -15 7 -15 15 0 8 5 15 11 15 6 0 23 8
37 19 43 30 91 38 110 19z m200 -11 c7 -6 10 -17 7 -24 -3 -8 1 -21 9 -28 12
-12 15 -11 19 5 3 12 14 20 25 20 12 0 24 5 28 11 3 6 15 9 25 6 11 -3 19 -1
19 3 0 5 9 8 21 7 16 -1 19 -6 14 -27 -4 -17 -3 -20 3 -11 7 9 12 10 16 2 4
-6 -1 -14 -11 -17 -10 -3 -33 -13 -52 -22 -19 -9 -37 -17 -40 -18 -3 0 -18 -4
-34 -8 -33 -10 -57 7 -57 40 0 28 -5 29 -45 3 -43 -27 -75 -40 -85 -34 -5 3
-10 0 -12 -7 -3 -9 -12 -8 -31 5 -31 20 -35 45 -9 53 9 4 33 13 52 22 19 9 38
15 43 14 4 -1 7 3 7 9 0 5 4 8 9 4 5 -3 13 -1 16 5 7 12 42 4 63 -13z m465 6
c-5 -12 -3 -14 7 -8 8 5 11 3 8 -6 -3 -8 -11 -13 -19 -11 -21 5 -60 -8 -54
-18 11 -18 -15 -11 -37 10 l-22 20 26 0 c14 0 39 7 54 15 37 19 45 19 37 -2z
m2565 10 c-10 -2 -26 -2 -35 0 -10 3 -2 5 17 5 19 0 27 -2 18 -5z m-3718 -91
c0 -2 -4 0 -10 3 -5 3 -10 2 -10 -2 0 -13 -59 -45 -70 -38 -5 3 -7 0 -5 -7 4
-9 -9 -18 -40 -26 -25 -7 -49 -12 -54 -12 -17 0 -20 29 -3 42 11 9 14 10 8 1
-4 -7 -2 -13 3 -13 6 0 11 7 11 15 0 8 7 15 15 15 8 0 15 3 15 8 0 10 52 33
59 26 3 -3 -1 -9 -9 -14 -12 -8 -11 -10 7 -10 17 0 20 4 16 23 -5 22 -5 22 12
2 13 -15 15 -16 12 -3 -8 24 2 28 24 10 10 -9 19 -18 19 -20z m1003 25 c7 -19
-13 -40 -55 -60 -43 -20 -60 -21 -76 -5 -18 18 -15 38 5 31 12 -5 14 -3 8 7
-6 10 -2 11 18 6 21 -5 25 -3 21 9 -5 11 -2 13 10 9 9 -3 16 -1 16 5 0 15 47
14 53 -2z m-858 -20 c10 -8 15 -19 11 -25 -8 -13 -64 -42 -83 -42 -7 0 -13 -5
-13 -12 0 -6 -3 -8 -6 -5 -4 3 -15 0 -26 -7 -25 -17 -56 -10 -64 16 -3 11 -4
21 -2 22 17 12 137 65 149 65 8 1 23 -5 34 -12z m158 -7 c8 -11 16 -17 20 -14
3 3 3 -3 0 -15 -7 -26 -3 -26 43 -1 37 21 93 24 106 5 16 -21 7 -37 -29 -52
-21 -8 -40 -19 -43 -23 -9 -13 -48 -30 -69 -30 -23 0 -52 36 -44 56 7 19 -4
18 -35 -4 -15 -11 -41 -24 -59 -30 -27 -9 -34 -7 -52 12 -19 20 -19 24 -6 42
8 10 15 15 15 10 0 -5 8 -2 18 6 19 17 83 44 95 40 4 -1 7 3 7 8 0 17 18 11
33 -10z m-516 -12 c-3 -8 -6 -5 -6 6 -1 11 2 17 5 13 3 -3 4 -12 1 -19z m-77
-38 c0 -13 -17 -13 -25 0 -3 5 -13 6 -22 3 -15 -6 -16 -5 -3 9 15 16 50 8 50
-12z m930 8 l21 -23 -26 -8 c-14 -5 -25 -13 -25 -17 0 -5 -9 -7 -20 -5 -11 2
-20 0 -20 -4 0 -9 -65 -41 -83 -41 -7 0 -18 9 -25 20 -10 17 -10 23 2 35 8 8
18 15 21 15 4 0 20 9 36 21 16 11 29 18 29 15 0 -3 10 -1 23 4 34 14 45 12 67
-12z m423 15 c-7 -2 -13 -12 -13 -21 0 -13 -3 -13 -12 -4 -10 10 -10 15 2 22
8 5 20 9 25 9 6 0 4 -3 -2 -6z m3577 -13 c6 -11 8 -20 6 -20 -3 0 -10 9 -16
20 -6 11 -8 20 -6 20 3 0 10 -9 16 -20z m-3815 -16 c16 -25 16 -25 -4 -15 -28
16 -34 14 -28 -10 4 -15 2 -19 -9 -15 -9 3 -14 -1 -14 -11 0 -14 -2 -14 -14 3
-13 17 -15 17 -21 2 -4 -9 -13 -14 -21 -11 -8 3 -18 -4 -23 -18 -7 -18 -10
-19 -10 -6 -1 9 -5 17 -11 17 -5 0 -7 -6 -4 -13 2 -7 -4 -13 -16 -14 -15 -1
-19 3 -16 20 3 24 44 50 108 68 24 7 47 16 53 21 12 11 10 12 30 -18z m-1067
-61 c-6 -7 -17 -13 -25 -13 -7 0 -23 -9 -35 -20 -20 -18 -39 -25 -60 -21 -5 0
-8 -3 -8 -9 0 -13 -37 -13 -45 0 -7 11 4 54 12 47 3 -3 25 5 50 19 25 13 54
24 64 24 11 0 19 5 19 12 0 6 8 3 19 -8 13 -13 15 -23 9 -31z m-333 13 c0 -13
-3 -22 -7 -20 -3 2 -8 -1 -10 -8 -3 -8 -9 -8 -24 1 -18 11 -18 11 0 9 10 -2
21 3 23 10 3 6 -1 12 -9 13 -7 0 -4 4 7 9 11 5 20 9 20 9 0 1 0 -10 0 -23z
m170 5 c0 -7 -16 -22 -35 -32 -19 -10 -40 -22 -45 -27 -16 -13 -55 -21 -55
-11 0 5 7 12 15 15 21 8 19 25 -2 18 -15 -5 -15 -4 -3 4 8 6 18 8 22 6 5 -3
17 5 27 17 14 17 20 19 26 9 5 -9 4 -11 -3 -6 -7 4 -12 2 -12 -3 0 -14 17 -14
25 -1 4 6 12 7 18 3 7 -4 5 1 -3 11 -13 17 -12 18 5 15 11 -3 20 -10 20 -18z
m331 -3 c10 -12 13 -18 7 -14 -8 4 -13 1 -13 -9 0 -8 -8 -19 -17 -22 -10 -4
-34 -16 -53 -28 -51 -31 -76 -36 -99 -16 -19 17 -19 17 2 37 19 17 39 29 67
39 3 1 21 9 40 18 45 21 44 21 66 -5z m1034 12 c0 -5 -2 -10 -4 -10 -2 0 -12
-3 -22 -7 -16 -6 -17 -5 -4 10 17 19 30 22 30 7z m-1500 -10 c0 -5 -7 -10 -16
-10 -8 0 -12 5 -9 10 3 6 10 10 16 10 5 0 9 -4 9 -10z m5348 -55 c0 -16 -2
-15 -8 5 -4 14 -8 34 -8 45 0 16 2 15 8 -5 4 -14 8 -34 8 -45z m-5498 45 c0
-5 -2 -10 -4 -10 -3 0 -8 5 -11 10 -3 6 -1 10 4 10 6 0 11 -4 11 -10z m788 -2
c21 -21 13 -38 -25 -55 -21 -10 -45 -23 -53 -29 -20 -16 -52 -21 -69 -10 -9 6
-12 5 -7 -2 13 -21 -11 -21 -29 0 -12 15 -14 23 -7 26 7 2 12 13 12 24 0 16 3
18 14 9 8 -7 16 -8 18 -4 6 15 83 53 109 53 14 0 30 -5 37 -12z m792 3 c0 -5
-7 -11 -15 -15 -15 -5 -20 5 -8 17 9 10 23 9 23 -2z m2350 -13 c77 -53 89
-187 32 -351 -57 -166 -207 -377 -335 -471 -94 -68 -94 -68 -101 -51 -3 9 35
54 108 127 116 116 196 220 247 320 43 86 79 200 79 255 0 63 -41 148 -84 174
l-31 19 26 0 c14 0 41 -10 59 -22z m-2970 -8 c8 -15 8 -20 -1 -20 -7 0 -10 -3
-6 -6 12 -12 -41 -47 -103 -69 -3 -1 -13 -5 -22 -9 -10 -5 -26 -5 -35 -2 -15
6 -15 8 -3 16 12 8 10 10 -7 10 -33 0 -28 23 7 38 16 7 32 13 35 12 4 -1 14 7
23 18 33 37 95 44 112 12z m143 -13 l27 -23 -23 -19 c-26 -23 -126 -74 -145
-75 -9 0 -11 7 -7 21 5 14 3 19 -3 15 -6 -3 -13 -3 -16 2 -6 10 30 43 38 35 3
-4 6 -2 6 4 0 9 19 17 55 24 6 1 16 10 23 20 16 23 14 24 45 -4z m-1048 -7 c3
-5 -1 -10 -9 -10 -8 0 -18 5 -21 10 -3 6 1 10 9 10 8 0 18 -4 21 -10z m1208
-24 c-7 -26 -12 -30 -21 -17 -5 7 -15 10 -21 7 -6 -4 -11 -1 -11 8 0 10 8 14
28 12 15 -2 26 -6 25 -10z m2364 -6 c25 -11 51 -33 63 -52 21 -35 27 -88 10
-88 -5 0 -10 -11 -10 -25 0 -14 5 -25 11 -25 30 0 -17 -193 -74 -306 -33 -66
-113 -182 -147 -214 -24 -23 -27 -24 -41 -9 -15 15 -10 24 50 106 36 49 81
116 98 149 49 92 93 232 94 303 1 55 -2 66 -28 99 -16 20 -45 47 -63 60 -40
27 -20 28 37 2z m-2437 -25 c0 -19 -4 -35 -10 -35 -5 0 -6 8 -3 17 5 13 3 15
-13 8 -10 -4 -30 -10 -44 -12 -24 -5 -25 -5 -5 11 11 8 25 16 31 16 6 0 17 7
24 15 18 21 20 19 20 -20z m-1218 -8 c-19 -18 -22 -19 -36 -4 -21 21 -20 25 7
29 40 7 51 -3 29 -25z m124 19 c18 -18 18 -32 0 -39 -19 -7 -40 18 -32 38 7
19 14 19 32 1z m129 -7 c-5 -15 -4 -19 4 -15 6 4 11 0 11 -9 0 -8 -8 -19 -17
-22 -10 -4 -20 -10 -23 -13 -7 -10 -87 -50 -98 -50 -6 0 -12 9 -15 20 -3 13 3
24 22 36 14 10 32 24 39 31 8 7 17 11 22 8 4 -3 11 3 14 12 6 15 8 15 16 3 8
-13 10 -12 10 3 0 9 5 17 11 17 6 0 8 -9 4 -21z m151 -8 c8 6 14 8 14 3 -1
-31 -16 -53 -48 -69 -20 -10 -46 -26 -56 -35 -18 -14 -19 -14 -13 5 7 19 6 19
-7 3 -22 -29 -48 -23 -44 10 2 21 8 27 25 26 13 0 21 2 18 4 -8 8 27 42 36 36
5 -3 9 0 9 6 0 7 6 10 14 7 8 -3 18 2 22 11 6 16 7 16 11 -1 4 -14 8 -16 19
-6z m5131 -3 c-3 -8 -6 -5 -6 6 -1 11 2 17 5 13 3 -3 4 -12 1 -19z m-5677 -9
c0 -5 -4 -9 -10 -9 -5 0 -10 7 -10 16 0 8 5 12 10 9 6 -3 10 -10 10 -16z m707
-36 c-8 -19 -18 -29 -30 -27 -9 1 -15 -1 -12 -5 7 -13 -41 -30 -69 -25 -19 3
-26 0 -26 -11 0 -17 -2 -18 -24 -9 -26 10 -19 47 10 61 15 7 31 10 37 6 6 -3
7 -1 3 5 -3 6 4 14 16 18 13 4 25 10 28 13 3 3 19 11 35 17 38 13 50 -2 32
-43z m-756 4 c-15 -15 -24 -2 -16 24 7 20 8 21 17 5 7 -12 7 -21 -1 -29z m274
18 c0 -11 -13 -26 -30 -35 -16 -8 -33 -19 -36 -23 -8 -11 -17 23 -12 40 3 9
10 10 24 3 13 -7 19 -7 19 0 0 5 -5 10 -11 10 -5 0 -7 5 -4 10 4 6 11 8 16 5
5 -4 9 -1 9 5 0 7 6 10 13 8 6 -3 12 -13 12 -23z m685 -32 c0 -12 -31 -33 -40
-28 -5 3 -10 1 -10 -4 0 -6 -9 -11 -20 -11 -11 0 -20 -4 -20 -10 0 -5 -5 -10
-11 -10 -5 0 -8 4 -4 9 3 5 0 13 -6 17 -7 4 -9 3 -5 -4 3 -6 -4 -18 -16 -27
-21 -14 -24 -14 -37 2 -12 17 -13 16 -6 -4 4 -14 2 -23 -4 -23 -10 0 -31 31
-31 47 0 13 69 45 81 38 5 -4 9 1 9 9 0 9 8 16 18 16 9 1 28 7 42 14 22 13 26
12 42 -7 10 -11 18 -22 18 -24z m-822 20 c-5 -7 -14 -10 -19 -7 -16 10 -9 23
10 21 15 -1 17 -4 9 -14z m2818 -30 c14 -53 -13 -197 -41 -224 -3 -4 -14 -5
-24 -2 -17 4 -17 9 6 81 18 57 24 90 20 128 -5 47 -4 51 14 47 11 -3 22 -17
25 -30z m646 -6 c69 -78 92 -290 43 -395 -32 -68 -66 -117 -74 -104 -3 5 -11
11 -17 13 -8 3 1 32 24 84 24 56 37 104 43 160 12 108 3 157 -38 217 -18 28
-36 55 -39 59 -12 21 34 -7 58 -34z m-3505 18 c0 -8 -4 -12 -9 -9 -5 3 -6 10
-3 15 9 13 12 11 12 -6z m987 -2 c20 -17 20 -17 6 1 -13 17 -13 18 5 15 26 -5
32 -39 9 -56 -13 -9 -21 -10 -31 -2 -10 9 -13 8 -13 -5 0 -19 -16 -22 -22 -4
-3 9 -9 8 -22 -5 -20 -20 -80 -24 -73 -4 2 6 12 12 23 12 10 0 22 8 26 18 4
10 12 16 17 13 4 -3 16 3 26 14 22 24 23 24 49 3z m169 -18 c-3 -9 -8 -14 -10
-11 -3 3 -2 9 2 15 9 16 15 13 8 -4z m-1108 -45 c-4 -11 -13 -20 -21 -20 -8 0
-17 -7 -20 -15 -7 -18 -31 -20 -37 -2 -2 6 -3 4 -2 -5 2 -10 -9 -27 -25 -38
-32 -23 -40 -25 -40 -9 0 5 6 7 13 3 9 -6 9 -5 0 7 -10 13 -10 19 2 35 8 10
15 16 15 12 0 -4 13 6 29 22 15 17 33 30 38 30 6 0 16 7 24 16 11 14 13 14 21
-1 5 -8 6 -24 3 -35z m3035 -1 c52 -94 32 -309 -29 -317 -21 -3 -23 -1 -17 20
3 12 14 63 23 111 16 81 16 93 2 145 -9 31 -20 65 -24 76 -16 38 20 10 45 -35z
m200 29 c49 -34 79 -102 92 -204 9 -76 9 -97 -5 -144 -13 -43 -21 -56 -37 -57
-15 -1 -20 3 -16 15 17 58 27 155 21 207 -8 75 -32 131 -75 173 -39 37 -28 42
20 10z m-2166 -4 c4 -10 1 -14 -6 -12 -15 5 -23 28 -10 28 5 0 13 -7 16 -16z
m-1324 -15 c0 -6 -4 -7 -10 -4 -5 3 -10 11 -10 16 0 6 5 7 10 4 6 -3 10 -11
10 -16z m370 -14 c-5 -6 -7 -15 -3 -18 6 -6 -11 -11 -29 -8 -5 0 -8 -8 -8 -19
0 -13 -7 -20 -20 -20 -11 0 -20 -4 -20 -9 0 -17 -30 -20 -45 -4 -15 14 -14 17
2 32 46 43 108 78 121 68 8 -7 9 -13 2 -22z m-261 2 c0 -8 -2 -8 -6 1 -4 10
-8 10 -19 2 -7 -7 -19 -8 -26 -4 -9 6 -5 10 12 14 29 8 40 4 39 -13z m405 -4
c9 -23 -16 -45 -51 -46 -15 0 -22 -2 -15 -4 21 -8 13 -21 -20 -34 -40 -15 -50
-17 -62 -11 -4 3 -2 8 5 13 10 6 11 9 2 9 -20 0 -15 18 5 24 10 4 29 16 43 29
13 12 27 22 30 22 4 0 11 3 15 8 13 13 42 7 48 -10z m140 -16 c9 -14 5 -22
-19 -42 -16 -13 -40 -24 -51 -25 -12 0 -25 -7 -28 -16 -5 -14 -8 -14 -23 1
-16 16 -17 16 -23 -1 -5 -14 -8 -14 -12 -3 -3 8 8 25 26 39 16 14 27 20 23 13
-4 -6 -3 -14 3 -18 9 -5 15 9 8 18 -4 5 23 29 47 44 24 14 35 12 49 -10z
m-581 -11 c7 4 8 3 4 -1 -16 -18 -37 -13 -37 8 1 20 2 20 11 4 6 -9 16 -14 22
-11z m992 5 c3 -5 1 -12 -4 -15 -5 -3 -11 1 -15 9 -6 16 9 21 19 6z m-1039
-21 c0 -11 -5 -21 -11 -24 -22 -8 -12 34 10 44 1 0 1 -9 1 -20z m774 9 c0 -4
3 -16 6 -26 6 -16 5 -16 -9 2 -15 19 -16 19 -17 2 0 -17 -1 -17 -16 -3 -8 9
-13 19 -10 24 6 10 46 10 46 1z m-76 -24 c-4 -8 -10 -15 -15 -15 -4 0 -6 7 -3
15 4 8 10 15 15 15 4 0 6 -7 3 -15z m-47 -27 c-3 -8 -6 -5 -6 6 -1 11 2 17 5
13 3 -3 4 -12 1 -19z m54 -1 c-10 -9 -11 -8 -5 6 3 10 9 15 12 12 3 -3 0 -11
-7 -18z m-554 -22 c-23 -22 -33 -18 -12 5 10 11 20 18 23 16 2 -3 -3 -12 -11
-21z m-127 1 c0 -8 -4 -17 -8 -20 -4 -2 -8 4 -8 15 0 10 4 19 8 19 4 0 8 -6 8
-14z m265 -22 c-7 -8 -18 -14 -24 -14 -5 0 -15 -8 -20 -17 -10 -17 -10 -17
-11 0 0 10 10 22 23 27 12 5 18 9 14 9 -5 1 -6 5 -2 11 3 5 12 7 20 4 12 -5
12 -8 0 -20z m3978 -601 c-13 -2 -33 -2 -45 0 -13 2 -3 4 22 4 25 0 35 -2 23
-4z m4081 -48 c4 -11 -1 -15 -19 -15 -16 0 -25 6 -25 15 0 8 9 15 19 15 10 0
21 -7 25 -15z m-6144 -555 c0 -5 10 -10 23 -11 22 0 22 0 1 -9 -12 -4 -31 -21
-43 -36 -19 -24 -21 -25 -21 -6 0 11 -5 24 -10 27 -6 4 -1 14 12 25 26 22 38
25 38 10z m-112 -383 c-21 -18 -23 -18 -35 -1 -12 16 -11 19 7 26 11 4 20 13
20 20 1 8 7 5 16 -7 14 -18 13 -22 -8 -38z m549 -139 c-3 -7 -5 -2 -5 12 0 14
2 19 5 13 2 -7 2 -19 0 -25z m-10 -40 c-3 -8 -6 -5 -6 6 -1 11 2 17 5 13 3 -3
4 -12 1 -19z m-677 -208 c0 -19 7 -20 148 -20 101 -1 142 -4 130 -10 -9 -6
-72 -9 -141 -8 -117 3 -127 1 -156 -20 -30 -22 -31 -22 -31 -3 0 11 -3 26 -6
35 -4 11 -1 16 10 16 9 0 19 7 22 15 9 22 24 18 24 -5z m558 -27 c-10 -2 -26
-2 -35 0 -10 3 -2 5 17 5 19 0 27 -2 18 -5z m-618 -110 c-14 -42 -80 -176
-118 -236 -13 -22 -21 -45 -18 -52 5 -14 -26 -26 -42 -16 -10 7 -22 71 -12 71
3 0 10 -4 16 -10 5 -5 14 -6 21 -2 19 12 109 168 133 231 24 66 40 77 20 14z
m7700 -86 c0 -1 -27 -29 -60 -62 -33 -33 -60 -55 -60 -50 0 5 26 33 57 62 53
49 63 57 63 50z m2762 -703 c37 -19 67 -52 68 -74 0 -9 -6 -6 -16 9 -23 32
-73 51 -136 51 -49 1 -51 2 -34 15 26 20 79 19 118 -1z m-8720 -135 c47 -24
56 -39 23 -39 -14 0 -36 10 -48 23 -12 13 -31 29 -42 36 -18 11 -18 11 5 5 14
-4 42 -15 62 -25z m8175 0 c47 -23 103 -83 103 -111 0 -13 -9 -8 -35 20 -19
22 -62 53 -95 71 -33 18 -60 34 -60 37 0 11 48 2 87 -17z m1172 -43 c13 -14
10 -15 -30 -13 -24 1 -61 -2 -81 -6 -48 -10 -51 8 -5 29 37 16 94 12 116 -10z
m-2318 -223 c13 -16 12 -17 -3 -4 -10 7 -18 15 -18 17 0 8 8 3 21 -13z m-281
-224 c0 -11 -4 -17 -10 -14 -5 3 -10 15 -10 26 0 11 5 17 10 14 6 -3 10 -15
10 -26z"/>
<path d="M6305 8069 c-141 -74 -265 -157 -265 -179 0 -4 37 -10 83 -13 102 -8
175 -30 297 -91 93 -47 175 -101 256 -171 30 -26 56 -38 100 -46 94 -17 198
-72 273 -145 92 -90 96 -87 55 34 -49 147 -139 286 -266 408 -113 109 -216
171 -352 213 -90 28 -110 27 -181 -10z"/>
<path d="M11205 7466 c11 -8 24 -12 29 -8 5 3 1 9 -10 13 -31 12 -39 10 -19
-5z"/>
<path d="M11540 7420 c20 -13 33 -13 25 0 -3 6 -14 10 -23 10 -15 0 -15 -2 -2
-10z"/>
<path d="M11430 7400 c0 -5 5 -10 11 -10 5 0 7 5 4 10 -3 6 -8 10 -11 10 -2 0
-4 -4 -4 -10z"/>
<path d="M11595 7380 c3 -5 11 -10 16 -10 6 0 7 5 4 10 -3 6 -11 10 -16 10 -6
0 -7 -4 -4 -10z"/>
<path d="M6720 7366 c0 -2 7 -6 15 -10 8 -3 15 -1 15 4 0 6 -7 10 -15 10 -8 0
-15 -2 -15 -4z"/>
<path d="M6846 6894 c-3 -9 -2 -23 4 -32 7 -14 9 -10 10 16 0 35 -5 41 -14 16z"/>
<path d="M6975 6101 c-3 -5 -1 -12 5 -16 5 -3 10 1 10 9 0 18 -6 21 -15 7z"/>
<path d="M3335 5480 c-3 -5 -2 -10 4 -10 5 0 13 5 16 10 3 6 2 10 -4 10 -5 0
-13 -4 -16 -10z"/>
<path d="M3475 5339 c-11 -17 1 -21 15 -4 8 9 8 15 2 15 -6 0 -14 -5 -17 -11z"/>
<path d="M2240 5239 c0 -5 5 -7 10 -4 6 3 10 8 10 11 0 2 -4 4 -10 4 -5 0 -10
-5 -10 -11z"/>
<path d="M2180 5101 c0 -5 5 -13 10 -16 6 -3 10 -2 10 4 0 5 -4 13 -10 16 -5
3 -10 2 -10 -4z"/>
<path d="M1996 5003 c-6 -14 -5 -15 5 -6 7 7 10 15 7 18 -3 3 -9 -2 -12 -12z"/>
<path d="M2161 4964 c0 -11 3 -14 6 -6 3 7 2 16 -1 19 -3 4 -6 -2 -5 -13z"/>
<path d="M8778 12540 c5 -46 -27 -34 272 -104 107 -26 202 -46 211 -46 11 0
20 15 28 44 6 25 11 47 11 50 0 10 -192 66 -276 81 -48 8 -123 15 -168 15
l-82 0 4 -40z"/>
<path d="M9335 12426 c-4 -24 -5 -52 -3 -62 1 -10 51 -48 112 -86 60 -38 156
-102 214 -143 57 -41 110 -75 116 -75 6 0 16 19 22 43 6 23 14 49 18 57 4 10
-10 27 -46 56 -80 61 -399 254 -422 254 -3 0 -8 -20 -11 -44z"/>
<path d="M9316 12318 c-2 -7 -9 -58 -15 -113 -6 -55 -14 -117 -17 -138 -6 -35
-4 -40 53 -95 85 -82 229 -212 271 -244 37 -29 72 -37 72 -15 0 6 21 78 47
159 25 82 45 150 42 152 -37 33 -340 241 -437 300 -7 4 -14 2 -16 -6z"/>
<path d="M9845 12118 c-16 -48 -24 -99 -19 -113 4 -10 38 -70 77 -134 38 -64
101 -176 140 -250 l70 -134 26 32 c14 17 38 41 54 54 l27 22 -54 111 c-64 133
-151 265 -236 357 -62 68 -77 77 -85 55z"/>
<path d="M9277 11973 c-3 -5 -8 -35 -11 -68 -4 -33 -23 -143 -42 -244 l-35
-183 23 -25 c79 -85 293 -231 322 -220 17 7 100 259 118 354 l12 65 -29 22
c-36 26 -321 282 -330 296 -7 12 -22 13 -28 3z"/>
<path d="M9762 11852 c-23 -64 -45 -133 -48 -153 -8 -45 34 -147 112 -280 62
-104 117 -211 129 -248 13 -42 36 -93 40 -89 2 2 13 46 24 98 12 52 35 137 52
188 l30 93 -61 117 c-67 128 -222 392 -230 392 -3 0 -24 -53 -48 -118z"/>
<path d="M9685 11573 c-9 -48 -45 -172 -85 -291 l-31 -93 25 -52 c57 -117 182
-330 229 -390 24 -31 27 -40 16 -53 -11 -13 -20 -4 -63 64 -28 44 -86 141
-130 215 -43 75 -82 134 -87 132 -4 -3 -13 -22 -20 -43 -23 -72 -81 -217 -111
-277 -62 -121 -57 -151 35 -247 67 -70 165 -150 177 -146 13 5 104 119 149
186 73 108 61 73 -20 -61 -9 -16 -15 -36 -12 -46 6 -22 -143 -195 -317 -366
-92 -91 -127 -121 -119 -100 21 49 48 83 171 218 l118 128 -47 38 c-58 46
-102 88 -168 163 l-51 57 -98 -185 c-74 -141 -96 -192 -92 -210 10 -37 76
-105 124 -126 44 -20 53 -34 27 -44 -22 -9 -100 41 -142 91 -20 25 -40 45 -43
45 -4 0 -39 -48 -79 -107 -40 -60 -88 -130 -107 -157 -19 -26 -34 -54 -34 -62
0 -7 26 -35 58 -61 102 -86 113 -97 189 -181 l74 -83 21 50 c22 53 25 56 46
43 10 -7 8 -18 -7 -53 -29 -63 -26 -82 22 -140 48 -59 64 -69 73 -42 22 64 55
123 68 123 21 0 20 -7 -9 -69 -45 -93 -41 -110 56 -206 l85 -84 44 107 c25 58
71 153 103 210 31 57 55 108 51 113 -3 5 5 22 18 37 13 15 32 45 43 65 27 51
37 46 18 -8 -15 -46 -8 -75 21 -75 18 0 166 -74 166 -84 0 -4 11 -17 25 -28
13 -10 30 -38 36 -61 12 -40 13 -41 20 -17 7 20 8 18 4 -10 -3 -19 -8 -77 -12
-127 l-6 -93 42 0 c54 0 81 15 81 43 0 12 -23 69 -50 126 -28 58 -49 109 -46
115 2 6 5 3 5 -7 1 -9 6 -16 13 -15 6 2 32 -45 57 -104 25 -60 50 -108 56
-108 6 0 33 20 60 43 28 24 95 73 150 110 118 78 135 91 135 105 0 25 -162
417 -181 436 -9 11 -74 -40 -169 -131 -35 -35 -65 -63 -67 -63 -1 0 2 12 8 28
12 33 75 98 147 154 28 22 52 44 52 48 0 4 -27 28 -60 54 -34 26 -63 53 -67
62 -11 29 7 27 40 -3 53 -49 89 -73 109 -73 10 0 56 33 101 73 136 120 159
126 45 12 -77 -77 -108 -116 -108 -132 0 -13 26 -81 59 -151 32 -70 71 -162
87 -206 16 -43 34 -80 39 -82 6 -2 109 46 230 108 l220 113 -1 290 c0 271 0
284 12 201 7 -49 14 -171 16 -272 2 -100 6 -185 10 -189 3 -4 48 10 100 31 77
31 106 38 168 38 41 1 88 -1 105 -4 35 -6 26 -33 90 277 26 122 45 234 43 250
-3 24 -12 31 -73 55 -100 38 -212 52 -311 39 -107 -15 -142 -28 -159 -59 -10
-19 -14 -22 -15 -10 0 9 -6 21 -12 25 -7 4 -13 17 -13 28 0 27 -103 96 -289
191 l-150 77 -45 -17 c-67 -24 -146 -74 -206 -128 -57 -51 -65 -56 -65 -34 0
22 131 123 201 155 38 18 58 31 49 34 -8 3 -70 11 -137 19 l-122 13 -6 -55
c-11 -101 -14 -96 -9 13 5 103 4 108 -13 99 -25 -14 -49 -43 -56 -67 -3 -11
-9 -148 -12 -305 -4 -157 -9 -294 -12 -304 -5 -19 4 -20 50 -1 13 5 17 2 17
-14 0 -14 -11 -27 -35 -38 -40 -19 -39 -17 -90 -236 -21 -87 -39 -156 -42
-153 -3 3 12 81 33 175 21 94 35 173 32 176 -9 9 -141 -35 -154 -51 -18 -23
-22 -16 -11 19 9 29 17 35 57 44 26 6 64 19 86 30 l39 18 6 105 c4 58 7 193 8
300 l0 195 -37 -70 c-53 -101 -70 -122 -77 -103 -4 9 5 35 21 59 34 54 104
201 99 209 -2 3 -11 93 -20 200 -23 280 -41 409 -55 393 -13 -14 -70 -218 -82
-296 l-12 -75 -23 15 c-13 9 -23 22 -23 29 0 35 -66 180 -136 299 -42 72 -89
158 -105 193 -15 34 -30 62 -32 62 -3 0 -8 -17 -12 -37z m328 -895 c11 -195 8
-339 -8 -434 -26 -151 -64 -284 -105 -372 -44 -93 -135 -236 -171 -267 -12
-11 3 16 34 61 108 156 185 341 222 539 15 77 16 127 10 343 -4 155 -3 252 3
252 5 0 12 -55 15 -122z m-52 -95 c12 -38 14 -147 4 -218 -21 -142 -66 -328
-94 -390 -44 -97 -75 -158 -103 -202 -39 -60 -132 -169 -158 -183 -22 -12
-102 16 -165 59 -25 17 -50 31 -56 31 -5 0 -9 4 -9 8 0 5 -12 15 -26 23 -28
15 -64 82 -60 115 3 27 54 98 88 121 16 10 28 22 28 27 0 5 16 23 35 42 19 18
35 37 35 43 0 6 4 11 9 11 5 0 19 15 30 33 11 18 29 44 41 56 11 13 20 30 20
38 0 7 5 13 10 13 13 0 90 80 90 93 0 5 11 18 25 29 14 11 25 24 25 29 0 6 20
36 43 67 24 31 63 87 87 125 52 81 81 90 101 30z m1126 -255 c-3 -8 -6 -5 -6
6 -1 11 2 17 5 13 3 -3 4 -12 1 -19z m-1923 -433 c-10 -8 -23 -15 -28 -15 -6
0 -1 7 10 15 10 8 23 15 28 15 6 0 1 -7 -10 -15z m913 -247 c-3 -8 -6 -5 -6 6
-1 11 2 17 5 13 3 -3 4 -12 1 -19z"/>
<path d="M10174 11493 c-37 -41 -40 -59 -24 -157 6 -34 19 -164 29 -289 11
-126 21 -231 24 -234 3 -3 22 7 41 22 l36 27 0 142 c0 153 -13 339 -31 454
-14 85 -25 90 -75 35z"/>
<path d="M9165 11318 c-10 -51 -31 -145 -46 -208 -40 -160 -46 -213 -25 -244
29 -45 193 -145 237 -146 33 0 196 383 187 442 -2 16 -28 37 -88 74 -47 28
-118 79 -157 113 -40 33 -76 61 -81 61 -5 0 -17 -42 -27 -92z"/>
<path d="M9056 10812 c-9 -15 -96 -443 -96 -474 0 -26 64 -85 100 -93 23 -5
37 -2 52 12 22 19 198 373 198 398 0 8 -17 23 -37 34 -21 11 -74 44 -118 75
-82 58 -90 62 -99 48z"/>
<path d="M10298 10814 c-5 -4 -8 -18 -8 -30 0 -20 7 -23 55 -29 58 -8 88 0 41
10 -14 3 -37 7 -50 10 -15 3 -26 13 -28 26 -2 11 -6 17 -10 13z"/>
<path d="M10770 10740 c-89 -13 -115 -20 -104 -30 5 -4 56 -33 114 -63 129
-67 217 -122 251 -159 43 -45 72 -51 153 -32 128 29 318 14 408 -32 39 -20 42
-18 17 19 -89 126 -165 175 -294 187 -43 4 -93 17 -129 34 -139 64 -294 92
-416 76z"/>
<path d="M11669 10397 c8 -10 28 -28 45 -40 23 -16 27 -17 17 -4 -8 10 -28 28
-45 40 -23 16 -27 17 -17 4z"/>
<path d="M11675 10338 c-26 -77 -88 -365 -100 -463 -3 -27 -2 -55 2 -60 4 -6
43 -31 87 -55 49 -28 111 -76 163 -127 47 -46 87 -83 89 -83 2 0 16 24 30 53
39 78 155 280 171 299 13 14 8 24 -43 85 -88 106 -242 259 -315 314 -72 53
-77 55 -84 37z"/>
<path d="M8947 10246 c-6 -15 -31 -163 -42 -248 -4 -28 -2 -48 3 -48 10 0 110
134 151 202 21 36 21 58 0 58 -6 0 -27 11 -47 25 -42 29 -58 31 -65 11z"/>
<path d="M12030 10074 c0 -8 80 -114 86 -114 7 0 -20 67 -35 83 -18 22 -51 41
-51 31z"/>
<path d="M12103 9812 c-55 -78 -153 -264 -153 -290 0 -12 39 -78 88 -147 48
-69 105 -155 128 -192 22 -37 45 -68 50 -70 5 -1 22 16 39 40 59 83 147 178
177 190 l30 12 -66 130 c-93 185 -221 385 -246 385 -3 0 -24 -26 -47 -58z"/>
<path d="M11320 9792 c-36 -10 -92 -31 -125 -48 -51 -26 -64 -39 -87 -84 -48
-97 -133 -449 -145 -604 -7 -90 -11 -89 75 -19 29 24 85 59 123 79 38 19 71
40 73 47 30 110 149 382 229 522 32 54 56 100 54 102 -5 4 -106 23 -121 22 -6
0 -40 -8 -76 -17z"/>
<path d="M11538 9753 c-69 -80 -278 -510 -278 -572 0 -16 7 -18 68 -13 72 5
111 -7 166 -50 27 -22 29 -22 40 -4 54 90 212 277 293 346 29 25 53 50 53 57
0 15 -137 147 -192 185 -50 34 -113 68 -126 68 -5 0 -16 -8 -24 -17z"/>
<path d="M8845 9718 c-60 -151 -125 -334 -125 -355 0 -23 3 -25 32 -19 58 11
256 26 272 20 23 -9 20 7 -13 89 -36 89 -139 307 -145 307 -2 0 -12 -19 -21
-42z"/>
<path d="M8923 9748 c3 -7 35 -78 72 -158 36 -80 72 -160 80 -177 8 -18 18
-33 22 -32 5 0 26 26 49 58 l41 57 -47 60 c-26 32 -82 92 -124 132 -73 68
-105 88 -93 60z"/>
<path d="M10950 9628 c-69 -33 -164 -82 -212 -109 -71 -41 -89 -56 -97 -82
-23 -74 -50 -628 -32 -656 24 -37 176 28 268 116 61 58 61 58 67 128 16 167
77 459 126 599 11 33 20 61 20 63 0 7 -20 -1 -140 -59z"/>
<path d="M9800 9540 c-17 -18 -62 -98 -101 -179 -39 -80 -75 -154 -80 -163 -5
-9 -11 -35 -15 -56 -6 -36 -4 -41 27 -62 19 -13 48 -36 65 -52 18 -17 34 -26
37 -21 3 4 25 47 50 94 25 48 86 154 136 238 50 83 91 153 91 156 0 8 -114 62
-148 70 -28 6 -36 3 -62 -25z"/>
<path d="M11843 9431 c-86 -69 -240 -244 -279 -317 -18 -33 -18 -34 6 -60 14
-14 50 -45 80 -67 30 -23 71 -56 90 -74 19 -18 38 -33 42 -33 4 0 38 23 75 52
69 52 193 116 271 139 23 7 42 18 42 24 0 13 -110 187 -192 303 -30 43 -58 72
-69 72 -9 0 -39 -17 -66 -39z"/>
<path d="M9176 9409 c-53 -63 -60 -86 -47 -159 28 -150 33 -170 40 -170 8 0
171 223 171 234 0 17 -105 126 -121 126 -9 0 -29 -14 -43 -31z"/>
<path d="M10586 9422 c-3 -5 -63 -47 -133 -95 -161 -109 -183 -129 -194 -175
-14 -62 -11 -375 4 -396 11 -15 28 -18 102 -17 108 1 204 11 211 22 2 4 5 50
5 101 0 103 15 408 25 506 4 41 3 62 -4 62 -6 0 -13 -4 -16 -8z"/>
<path d="M12450 9409 c7 -11 14 -19 16 -16 7 7 -7 37 -17 37 -6 0 -5 -9 1 -21z"/>
<path d="M12400 9274 c-45 -41 -135 -159 -148 -195 -8 -20 4 -51 70 -184 44
-88 82 -162 85 -165 2 -3 32 26 65 64 62 68 124 116 153 116 8 0 15 4 15 9 0
5 -22 60 -49 122 -27 63 -63 149 -81 192 -37 90 -50 95 -110 41z"/>
<path d="M9339 9248 c-50 -56 -140 -185 -148 -216 -10 -32 37 -254 57 -274 15
-15 24 -7 102 97 39 52 100 127 135 167 36 39 65 78 65 87 0 15 -156 171 -172
171 -5 0 -22 -14 -39 -32z"/>
<path d="M9508 9013 c-25 -27 -84 -98 -132 -160 -47 -62 -91 -115 -96 -118
-17 -10 -11 -58 15 -135 14 -40 25 -82 25 -93 0 -43 36 -1 179 208 27 39 85
111 129 161 l81 91 -20 22 c-28 30 -95 71 -117 71 -10 0 -38 -21 -64 -47z"/>
<path d="M12059 9007 c-88 -37 -149 -70 -197 -105 -59 -44 -59 -53 1 -139 30
-43 73 -111 97 -150 23 -40 47 -73 53 -73 6 0 25 13 42 29 48 47 144 100 220
122 38 11 76 22 83 24 8 3 -10 50 -59 147 -39 79 -78 151 -87 161 -22 25 -65
20 -153 -16z"/>
<path d="M12640 8978 c0 -7 5 -20 10 -28 8 -12 10 -11 10 7 0 12 -4 25 -10 28
-5 3 -10 0 -10 -7z"/>
<path d="M12593 8857 c-38 -20 -112 -96 -150 -154 -14 -21 -13 -27 12 -75 42
-83 175 -278 188 -278 7 0 39 28 72 61 72 75 111 93 177 85 26 -4 48 -3 48 1
0 4 -35 51 -78 103 -42 52 -104 135 -138 185 -33 49 -67 91 -75 92 -8 1 -33
-8 -56 -20z"/>
<path d="M10246 8688 c-9 -13 -29 -76 -45 -139 -16 -63 -41 -147 -55 -188 -39
-112 -37 -124 35 -193 64 -61 177 -124 240 -134 30 -5 38 -3 43 12 20 68 96
505 108 619 l3 29 -140 1 c-77 1 -148 5 -157 9 -12 5 -21 1 -32 -16z"/>
<path d="M12257 8645 c-76 -27 -170 -86 -201 -128 -19 -26 -19 -28 -2 -64 34
-70 171 -295 183 -300 7 -3 25 10 40 29 85 103 147 139 251 146 48 3 72 9 69
16 -3 6 -38 61 -78 122 -41 61 -86 132 -101 158 -24 40 -32 46 -60 45 -18 0
-64 -11 -101 -24z"/>
<path d="M12822 8456 c-42 -19 -142 -124 -142 -149 0 -11 32 -62 70 -114 39
-53 92 -129 118 -169 26 -41 50 -74 54 -74 4 0 27 21 50 46 61 66 118 97 162
88 l36 -6 -43 104 c-47 113 -125 239 -163 265 -34 22 -103 26 -142 9z"/>
<path d="M12472 8285 c-71 -22 -168 -108 -191 -168 -9 -22 -3 -37 38 -104 73
-119 140 -223 145 -223 3 0 34 22 70 49 82 62 148 87 259 96 48 4 87 9 87 12
0 24 -209 314 -243 338 -26 18 -106 19 -165 0z"/>
<path d="M13085 8046 c-37 -16 -135 -119 -135 -141 0 -8 17 -50 38 -93 21 -42
58 -124 83 -181 24 -57 49 -105 56 -108 7 -3 31 10 54 29 34 27 49 33 90 33
27 0 49 2 49 4 0 7 -61 215 -96 329 -30 97 -39 114 -64 127 -35 18 -37 18 -75
1z"/>
<path d="M12679 7876 c-91 -37 -174 -96 -181 -128 -3 -19 162 -367 175 -368 4
0 34 18 66 40 118 81 216 110 301 91 24 -5 46 -8 49 -6 10 11 -146 350 -173
378 -27 27 -164 24 -237 -7z"/>
<path d="M13214 7534 c-46 -31 -64 -52 -64 -76 0 -18 118 -325 132 -345 7 -9
17 -8 43 3 47 19 84 18 122 -6 l32 -19 -33 92 c-19 51 -53 149 -76 219 -54
165 -77 185 -156 132z"/>
<path d="M12915 7470 c-53 -16 -189 -104 -204 -132 -14 -25 -12 -33 41 -150
31 -67 63 -140 72 -160 8 -21 19 -38 24 -38 6 0 36 18 68 39 88 59 173 84 262
79 49 -4 72 -1 71 6 0 6 -28 80 -62 165 -45 110 -70 159 -88 174 -31 22 -136
32 -184 17z"/>
<path d="M13555 7210 c3 -5 8 -10 11 -10 2 0 4 5 4 10 0 6 -5 10 -11 10 -5 0
-7 -4 -4 -10z"/>
<path d="M13460 7196 c0 -9 5 -16 10 -16 6 0 10 4 10 9 0 6 -4 13 -10 16 -5 3
-10 -1 -10 -9z"/>
<path d="M13622 7175 c-11 -13 -9 -15 8 -15 11 0 20 7 20 15 0 19 -11 19 -28
0z"/>
<path d="M13534 7164 c3 -8 9 -22 12 -31 5 -17 5 -17 -6 0 -6 9 -15 15 -20 12
-5 -3 -11 -1 -15 5 -3 5 -11 10 -17 10 -14 0 -4 -50 26 -119 45 -103 127 -314
124 -317 -2 -1 -19 32 -37 74 -111 252 -132 286 -179 297 -41 9 -106 -15 -110
-41 -8 -56 148 -384 179 -375 43 13 89 11 118 -3 42 -22 132 -136 107 -136 -3
0 -19 20 -37 44 -38 54 -84 78 -129 70 -17 -4 -34 -12 -36 -19 -3 -7 22 -60
54 -119 33 -59 76 -157 98 -221 l38 -115 46 6 c54 7 98 -11 124 -50 24 -37 20
-41 -15 -12 -23 19 -42 26 -74 26 -60 0 -66 -15 -43 -109 10 -42 27 -119 38
-171 11 -52 23 -105 25 -117 5 -20 12 -23 56 -23 61 0 104 -21 124 -59 l15
-30 157 53 c87 29 188 67 225 84 142 64 283 175 374 293 50 65 134 231 134
265 0 13 4 34 9 48 7 17 7 26 -2 29 -7 2 -12 21 -13 43 -2 80 -4 90 -14 74 -9
-13 -10 -13 -11 0 -1 8 -1 18 0 22 0 5 -5 7 -12 5 -6 -1 -11 4 -9 11 1 8 -7
16 -18 19 -11 3 -20 12 -20 20 0 8 -5 11 -12 8 -7 -4 -5 0 6 9 10 8 15 20 11
27 -6 8 -11 7 -18 -6 -7 -14 -11 -15 -17 -4 -7 10 -11 10 -24 -1 -9 -7 -18
-11 -19 -9 -36 51 -49 99 -26 99 8 0 7 6 -2 17 -13 15 -15 13 -20 -13 -12 -52
-10 -74 6 -74 8 0 15 -6 15 -12 0 -23 -16 -39 -33 -32 -11 4 -17 1 -17 -7 0
-8 -4 -21 -9 -28 -8 -12 -13 -11 -30 10 l-20 24 -1 -23 c0 -27 -24 -39 -45
-22 -12 10 -15 7 -21 -14 -7 -31 -7 -31 -41 -8 -15 9 -24 12 -20 6 3 -6 0 -19
-7 -29 -12 -17 -15 -17 -37 -2 -30 22 -38 21 -33 0 2 -10 0 -24 -5 -32 -7 -11
-19 -7 -60 23 -49 36 -68 66 -56 86 3 5 -7 15 -22 22 -15 6 -39 21 -52 32 -13
12 -21 15 -16 7 5 -9 4 -12 -3 -7 -23 14 -13 37 13 31 14 -3 36 -7 49 -10 13
-3 31 -8 40 -11 9 -3 16 -1 16 5 0 6 -9 11 -20 11 -11 0 -20 4 -20 9 0 5 -3
16 -6 24 -4 13 1 14 30 7 20 -4 36 -6 36 -4 0 3 9 0 20 -6 20 -11 30 3 10 15
-5 3 -10 10 -10 15 0 16 31 19 69 5 39 -13 40 -13 32 8 -6 15 -4 25 8 34 14
11 14 13 -6 19 -13 3 -23 10 -23 15 0 5 -7 9 -16 9 -8 0 -12 5 -9 10 3 6 20
10 37 10 23 0 29 4 24 16 -4 10 -2 13 6 8 8 -5 9 -2 5 9 -7 18 8 24 18 7 10
-16 37 1 32 21 -3 11 -1 17 4 13 5 -3 6 2 3 10 -3 8 -19 19 -35 25 -16 6 -44
16 -61 23 -37 14 -58 31 -58 47 0 6 -7 11 -15 11 -8 0 -15 -7 -15 -15 0 -18
-5 -18 -50 -4 -19 6 -48 12 -65 14 -65 7 -117 24 -110 35 3 5 13 6 23 3 9 -3
14 -3 10 1 -11 13 -108 19 -108 7 0 -6 -5 -11 -11 -11 -6 0 -9 6 -6 13 3 8 -1
14 -10 14 -9 0 -13 -7 -10 -19 4 -12 1 -16 -6 -11 -7 4 -18 8 -26 10 -7 1 -18
6 -24 12 -7 7 -2 8 14 5 23 -5 23 -5 5 10 -10 8 -15 19 -11 25 4 7 -6 11 -27
11 -22 0 -29 -3 -19 -9 9 -6 10 -10 2 -16 -8 -4 -9 -11 -2 -19 7 -8 4 -12 -10
-12 -10 0 -21 8 -25 18 -4 13 -18 18 -57 20 -39 2 -52 7 -51 18 1 9 -8 16 -23
16 -13 1 -23 -4 -23 -11 0 -7 -6 -15 -12 -18 -7 -2 3 -9 22 -15 l35 -10 -32
-1 c-18 -1 -36 5 -40 13 -14 24 -50 29 -62 9 -9 -16 -10 -16 -11 5 0 16 -5 22
-17 20 -10 -2 -17 2 -16 8 1 7 -9 14 -23 17 -19 3 -24 1 -20 -9z m46 -44 c0
-5 -5 -10 -11 -10 -5 0 -7 5 -4 10 3 6 8 10 11 10 2 0 4 -4 4 -10z m798 -322
c-3 -7 -13 -15 -23 -16 -10 -3 -15 0 -11 7 5 7 1 9 -8 5 -9 -3 -16 -1 -16 5 0
6 14 11 31 11 20 0 29 -4 27 -12z m-113 -38 c3 -5 2 -10 -4 -10 -5 0 -13 5
-16 10 -3 6 -2 10 4 10 5 0 13 -4 16 -10z m-75 -51 c0 -6 -4 -7 -10 -4 -5 3
-10 11 -10 16 0 6 5 7 10 4 6 -3 10 -11 10 -16z m-81 -80 c-22 -14 -33 -10
-19 6 7 8 17 12 22 9 6 -4 5 -10 -3 -15z m111 -46 c0 -14 -22 -18 -34 -5 -4 4
-11 7 -14 7 -4 1 -18 7 -32 15 l-25 13 30 13 c27 11 33 10 53 -9 12 -11 22
-26 22 -34z m512 5 c-7 -7 -12 -8 -12 -2 0 14 12 26 19 19 2 -3 -1 -11 -7 -17z
m-658 -14 c3 -8 2 -12 -4 -9 -6 3 -10 10 -10 16 0 14 7 11 14 -7z m601 -4 c3
-5 1 -10 -4 -10 -6 0 -11 5 -11 10 0 6 2 10 4 10 3 0 8 -4 11 -10z m154 -29
c-3 -6 -10 -7 -18 -2 -7 5 -10 14 -6 21 9 14 29 -2 24 -19z m-567 -14 c35 -16
48 -28 48 -43 0 -34 -9 -34 -71 -1 -57 31 -75 50 -64 67 7 11 24 6 87 -23z
m367 -27 c1 -9 -5 -6 -15 8 -9 14 -13 30 -9 40 7 14 9 13 15 -8 5 -14 8 -32 9
-40z m-63 26 c3 -8 1 -23 -6 -33 -7 -11 -10 -12 -7 -3 2 8 0 23 -5 33 -6 11
-5 17 2 17 6 0 13 -6 16 -14z m118 -2 c5 -14 4 -15 -9 -4 -17 14 -19 20 -6 20
5 0 12 -7 15 -16z m-171 -26 c7 -25 -13 -44 -25 -25 -13 20 -9 47 6 47 7 0 16
-10 19 -22z m-384 -4 c2 -2 2 -7 -2 -10 -3 -3 -16 2 -29 11 l-23 17 25 -7 c14
-4 27 -9 29 -11z m41 -21 c0 -12 3 -14 8 -6 4 7 13 9 21 4 10 -7 11 -13 2 -27
-6 -11 -11 -14 -11 -7 0 7 -6 10 -13 7 -8 -3 -18 6 -25 21 -10 21 -9 25 3 25
8 0 15 -8 15 -17z m278 5 c17 -17 15 -24 -8 -25 -11 -1 -25 7 -30 18 -9 16 -7
19 8 19 10 0 23 -5 30 -12z m-58 -40 c0 -9 -34 -11 -43 -2 -3 3 -3 12 0 20 4
10 9 11 24 1 10 -6 19 -15 19 -19z m-118 -30 c-9 -9 -12 -7 -12 12 0 19 3 21
12 12 9 -9 9 -15 0 -24z"/>
<path d="M13810 7161 c0 -5 7 -12 16 -15 22 -9 24 -8 18 9 -7 16 -34 21 -34 6z"/>
<path d="M14050 7136 c0 -9 7 -16 16 -16 17 0 14 22 -4 28 -7 2 -12 -3 -12
-12z"/>
<path d="M14190 7092 c0 -12 23 -32 37 -32 11 0 11 4 1 20 -13 20 -38 28 -38
12z"/>
<path d="M14170 7070 c0 -5 5 -10 10 -10 6 0 10 5 10 10 0 6 -4 10 -10 10 -5
0 -10 -4 -10 -10z"/>
<path d="M13054 7056 c-61 -19 -152 -74 -171 -103 -15 -23 -14 -30 27 -151 53
-157 68 -192 80 -192 5 0 25 11 45 25 73 49 143 69 240 70 50 0 106 -4 126 -8
l37 -9 -49 94 c-26 52 -60 128 -74 169 -37 103 -57 119 -148 118 -40 0 -91 -6
-113 -13z"/>
<path d="M4645 7030 c3 -5 13 -10 21 -10 8 0 12 5 9 10 -3 6 -13 10 -21 10 -8
0 -12 -4 -9 -10z"/>
<path d="M14550 6864 c0 -3 5 -14 10 -25 8 -15 7 -19 -5 -19 -8 0 -15 -5 -15
-12 0 -6 3 -8 7 -5 3 4 14 0 23 -8 15 -14 17 -12 16 17 -1 18 -5 39 -9 46 -8
12 -27 17 -27 6z"/>
<path d="M14630 6850 c0 -5 5 -10 10 -10 6 0 10 5 10 10 0 6 -4 10 -10 10 -5
0 -10 -4 -10 -10z"/>
<path d="M14460 6845 c0 -3 6 -14 13 -25 10 -17 9 -22 -2 -29 -11 -7 -10 -11
7 -20 30 -16 35 -14 30 14 -4 18 -1 25 11 25 12 0 9 6 -9 20 -24 18 -50 26
-50 15z"/>
<path d="M14622 6732 c-1 -15 -3 -36 -4 -46 -2 -10 2 -21 8 -23 7 -2 10 6 6
23 -3 15 0 29 8 34 11 7 10 11 -2 23 -13 14 -15 13 -16 -11z"/>
<path d="M14723 6735 c-6 -14 -8 -25 -3 -25 4 0 5 -11 3 -24 -3 -13 0 -26 5
-30 11 -7 20 50 12 82 -5 21 -5 21 -17 -3z"/>
<path d="M14550 6721 c0 -6 4 -11 10 -11 6 0 6 -9 -1 -26 -8 -24 -6 -44 5 -33
11 11 10 72 -1 76 -7 3 -13 0 -13 -6z"/>
<path d="M14485 6687 c4 -16 2 -33 -4 -41 -9 -10 -8 -15 4 -20 9 -3 13 -2 10
4 -3 5 -1 19 6 31 9 17 8 25 -6 38 -15 15 -16 14 -10 -12z"/>
<path d="M13153 6652 c-46 -15 -94 -39 -107 -51 -47 -44 -43 -65 33 -222 38
-79 73 -157 77 -172 3 -16 13 -31 20 -34 7 -3 44 6 81 19 94 32 281 33 361 1
63 -26 63 -27 21 104 -34 107 -105 252 -151 308 -42 51 -78 65 -171 71 -72 4
-92 1 -164 -24z"/>
<path d="M14405 6645 c3 -43 14 -59 17 -22 0 15 1 32 2 39 1 6 -4 13 -10 15
-7 2 -10 -10 -9 -32z"/>
<path d="M14317 6622 c5 -28 3 -34 -8 -27 -12 8 -12 6 0 -8 7 -9 17 -15 21
-12 5 3 10 1 12 -5 1 -5 3 10 3 34 0 34 -4 46 -17 49 -14 4 -15 -1 -11 -31z"/>
<path d="M13315 6174 c-72 -16 -112 -35 -121 -58 -7 -18 54 -328 66 -340 6 -6
36 -3 81 8 153 37 271 31 371 -20 26 -13 50 -24 54 -24 24 0 -57 349 -90 386
-26 30 -155 64 -235 63 -31 0 -87 -7 -126 -15z"/>
<path d="M13450 5773 c-69 -6 -145 -25 -162 -41 -10 -8 -18 -27 -18 -41 1 -34
55 -309 63 -317 3 -4 30 0 59 7 30 8 102 14 168 13 102 0 123 -3 181 -27 84
-35 89 -34 84 6 -3 17 -12 91 -21 162 -9 72 -21 138 -26 148 -20 39 -207 103
-278 95 -8 -1 -31 -3 -50 -5z"/>
<path d="M6570 5728 l-65 -32 97 -7 c114 -8 219 -37 305 -85 40 -22 75 -34
100 -34 21 0 62 -11 91 -25 46 -21 51 -22 43 -6 -6 10 -36 42 -68 72 -101 93
-241 149 -373 149 -53 0 -77 -6 -130 -32z"/>
<path d="M13836 5687 c-17 -13 -17 -20 1 -183 l19 -169 58 -5 c47 -4 62 -10
82 -33 12 -15 24 -27 26 -27 2 0 0 76 -4 170 -8 192 -17 215 -90 245 -47 18
-69 19 -92 2z"/>
<path d="M6388 5635 c-49 -25 -88 -46 -88 -48 0 -1 64 -2 142 -2 129 0 150 -3
218 -27 l76 -26 54 18 c30 11 70 19 88 20 46 0 40 15 -20 43 -83 39 -165 58
-278 63 l-105 4 -87 -45z"/>
<path d="M6726 5460 c-20 -18 -36 -38 -36 -46 0 -7 19 -18 43 -24 204 -53 245
-69 339 -132 31 -21 78 -62 104 -92 33 -37 53 -52 66 -48 25 6 23 18 -13 73
-63 98 -205 206 -344 263 -103 41 -118 42 -159 6z"/>
<path d="M13470 5365 c-8 -2 -36 -7 -62 -10 -32 -4 -51 -12 -58 -24 -7 -14 3
-82 35 -242 25 -123 45 -226 45 -228 0 -2 21 0 48 4 121 18 255 -4 323 -55 15
-10 29 -16 33 -13 10 10 7 440 -4 467 -20 54 -124 94 -260 101 -47 2 -92 2
-100 0z"/>
<path d="M6171 5303 c41 -43 60 -90 67 -161 l7 -65 75 -32 c41 -17 97 -46 124
-63 27 -17 53 -29 59 -25 16 10 99 192 95 210 -8 43 -256 141 -398 158 l-55 6
26 -28z"/>
<path d="M13905 5293 c-11 -3 -24 -9 -29 -13 -4 -5 -9 -118 -9 -252 -1 -233 0
-243 19 -246 42 -7 74 -26 93 -54 l19 -31 6 59 c3 33 11 151 16 262 10 200 10
205 -11 234 -12 16 -32 34 -46 39 -26 9 -26 10 -58 2z"/>
<path d="M6676 5039 c-4 -30 -7 -79 -9 -109 l-2 -55 38 -3 c28 -2 37 1 37 12
0 27 -41 191 -50 200 -4 4 -11 -15 -14 -45z"/>
<path d="M6585 5003 c-39 -87 -38 -83 -27 -83 21 0 42 32 42 63 0 18 7 41 15
51 16 22 19 36 8 36 -5 0 -21 -30 -38 -67z"/>
<path d="M6202 4963 c-12 -37 -40 -99 -62 -137 -42 -71 -45 -96 -12 -96 21 0
97 -38 154 -77 21 -14 44 -23 51 -20 18 7 127 232 127 262 0 41 -118 118 -202
132 l-33 5 -23 -69z"/>
<path d="M6518 4858 c-19 -14 -118 -226 -118 -251 0 -17 18 -33 27 -23 3 3 0
12 -7 21 -10 12 -8 16 14 26 27 13 33 24 16 34 -20 12 -9 32 25 48 19 9 35 24
35 32 0 9 9 28 20 43 26 37 37 82 18 82 -8 0 -22 -6 -30 -12z"/>
<path d="M13487 4833 c-46 -8 -48 -27 -22 -184 13 -79 26 -170 30 -202 4 -31
11 -60 16 -62 4 -3 48 -7 96 -8 76 -3 96 -7 152 -35 35 -18 65 -32 66 -30 2 2
5 99 7 216 l3 214 -27 23 c-57 49 -224 85 -321 68z"/>
<path d="M6676 4818 c-27 -91 -52 -296 -38 -310 5 -5 28 -5 58 2 26 6 58 9 69
6 11 -3 27 -1 35 4 12 8 10 27 -13 141 -15 75 -34 141 -44 151 -18 21 -62 24
-67 6z"/>
<path d="M6817 4815 c-10 -9 -15 -26 -12 -38 2 -12 14 -69 26 -127 27 -133 31
-138 106 -121 109 24 198 40 234 40 56 1 136 -27 176 -62 35 -31 36 -31 28 -7
-50 165 -263 313 -471 327 -57 4 -73 2 -87 -12z"/>
<path d="M6580 4730 c0 -11 2 -20 4 -20 2 0 6 9 9 20 3 11 1 20 -4 20 -5 0 -9
-9 -9 -20z"/>
<path d="M13866 4718 c-3 -13 -7 -114 -9 -225 l-5 -203 35 -26 c19 -15 43 -45
53 -67 l18 -41 6 35 c3 19 12 129 20 244 15 229 11 256 -35 289 -35 24 -78 21
-83 -6z"/>
<path d="M7070 4523 c-57 -10 -163 -43 -177 -55 -12 -9 -13 -25 -8 -76 7 -61
6 -63 -13 -53 -13 7 -23 26 -27 51 -4 22 -14 49 -23 60 -38 46 -158 33 -191
-20 l-17 -29 -21 21 c-28 28 -56 18 -47 -17 4 -15 1 -32 -6 -40 -7 -9 -11 -17
-9 -19 2 -1 25 -17 50 -34 53 -36 84 -90 74 -129 l-6 -26 -19 31 c-21 34 -95
82 -128 82 -27 0 -27 -6 -4 -50 32 -61 45 -126 39 -194 -5 -56 -4 -66 13 -78
14 -9 17 -17 11 -27 -7 -11 -17 -11 -60 2 -41 12 -51 12 -51 2 0 -8 9 -16 19
-20 19 -6 19 -7 -5 -42 -13 -20 -24 -44 -24 -54 0 -10 -11 -59 -25 -110 -13
-51 -23 -94 -21 -96 2 -2 36 -7 76 -10 l72 -6 -29 -29 c-24 -23 -41 -30 -93
-36 -63 -7 -63 -7 -77 -47 -7 -22 -23 -51 -34 -65 -17 -20 -20 -21 -14 -5 28
79 23 103 -13 65 -17 -19 -34 -73 -36 -120 -1 -8 -14 -51 -28 -95 -34 -98 -43
-174 -22 -182 18 -7 81 31 163 97 35 28 66 49 70 47 113 -60 148 -72 226 -72
66 0 90 5 138 27 31 15 57 31 57 36 0 9 52 32 72 32 5 0 13 -11 18 -24 5 -14
19 -26 32 -28 19 -2 25 -13 35 -60 12 -54 12 -59 -7 -78 -15 -15 -19 -28 -14
-48 6 -27 29 -52 48 -52 6 0 22 -28 34 -61 22 -56 22 -62 7 -73 -25 -18 -10
-66 20 -66 24 0 33 -18 50 -95 3 -16 8 -38 11 -47 3 -10 -2 -19 -16 -23 -37
-12 -20 -75 21 -75 12 0 21 -18 35 -67 9 -38 22 -77 27 -87 7 -15 4 -23 -13
-36 -19 -14 -21 -20 -11 -38 6 -11 21 -22 33 -24 17 -2 26 -18 44 -73 20 -61
21 -72 8 -86 -29 -32 -10 -69 36 -69 15 0 35 -9 45 -20 41 -45 122 -45 185 0
27 19 45 61 20 45 -5 -3 -19 0 -31 8 -19 14 -17 16 45 37 66 22 79 33 51 44
-11 4 -15 21 -15 58 0 29 -3 70 -7 91 -5 35 -8 38 -30 32 -14 -3 -70 -13 -125
-21 -83 -12 -103 -13 -109 -2 -14 22 -10 27 29 34 32 5 146 30 232 50 24 6 24
6 4 14 -17 7 -24 22 -33 73 -15 86 -14 104 6 116 37 20 0 22 -146 5 -83 -9
-153 -15 -155 -13 -2 2 -6 13 -8 24 -3 17 7 22 72 36 41 10 101 18 133 18 37
1 59 6 63 14 2 7 -2 42 -10 77 -8 35 -14 65 -13 66 1 0 11 6 22 12 l20 11 -20
1 c-11 0 -69 -7 -130 -15 -156 -21 -192 -20 -200 6 -4 11 -5 23 -2 25 8 9 182
34 235 34 l54 0 -7 65 c-6 56 -5 67 13 90 25 32 20 49 -20 66 -35 14 -186 14
-250 -1 -23 -5 -51 -10 -60 -10 -28 0 -21 29 10 41 56 21 177 41 225 36 l49
-4 -7 60 c-7 56 -6 61 16 78 54 41 -34 60 -213 47 -62 -5 -126 -10 -143 -11
-26 -2 -30 2 -33 24 -3 27 -3 27 99 39 56 7 143 10 193 8 l92 -5 -8 66 c-5 36
-6 91 -3 122 6 55 5 58 -27 84 -46 39 -68 45 -223 61 -77 7 -151 15 -164 16
-17 2 -29 -4 -36 -19 -16 -32 -35 -10 -35 42 0 56 15 70 50 45 34 -24 51 -28
200 -40 99 -9 135 -16 173 -35 l49 -25 -6 142 c-3 79 -6 151 -6 160 0 25 -57
86 -102 109 -42 21 -167 41 -209 32 -17 -3 -28 0 -31 9 -7 17 15 22 107 22 84
0 135 -16 181 -56 l34 -30 0 126 c0 106 -3 133 -20 165 -26 51 -82 97 -136
110 -42 11 -135 13 -184 4z m-170 -304 c54 -24 100 -66 100 -91 0 -23 -12 -23
-27 0 -15 25 -84 57 -158 72 -67 15 -81 23 -70 40 10 17 97 5 155 -21z m86
-250 c8 -6 14 -19 14 -28 0 -14 -15 -16 -115 -16 -104 0 -137 6 -102 18 9 3 9
7 -1 20 -12 14 -8 16 40 20 74 6 148 0 164 -14z m14 -341 c0 -16 -3 -19 -11
-11 -6 6 -8 16 -5 22 11 17 16 13 16 -11z m-773 -480 c-3 -8 -6 -5 -6 6 -1 11
2 17 5 13 3 -3 4 -12 1 -19z"/>
<path d="M13527 4325 c-10 -9 -16 -25 -13 -34 2 -9 10 -79 17 -156 7 -77 17
-146 22 -152 5 -7 22 -13 37 -13 41 0 144 -34 180 -60 17 -12 33 -20 35 -18
10 9 23 342 15 363 -15 38 -109 78 -199 83 -64 4 -80 1 -94 -13z"/>
<path d="M4635 4227 c-78 -45 -240 -154 -253 -169 -11 -13 -3 -30 48 -105 l60
-90 143 72 c78 40 157 77 175 83 l34 12 -29 49 c-33 58 -120 171 -130 171 -5
0 -26 -11 -48 -23z"/>
<path d="M13855 4228 c-2 -7 -9 -89 -15 -183 l-11 -169 31 -24 c18 -14 36 -36
41 -50 5 -13 12 -22 15 -20 3 3 14 78 25 166 l19 160 -24 55 c-27 63 -70 97
-81 65z"/>
<path d="M5092 4180 c-9 -25 -6 -40 22 -102 19 -40 42 -99 52 -130 10 -32 21
-58 25 -58 8 0 29 56 29 78 0 9 -8 25 -19 36 -10 12 -26 46 -36 76 -18 55 -52
130 -59 130 -2 0 -9 -13 -14 -30z"/>
<path d="M6461 4134 c0 -11 3 -14 6 -6 3 7 2 16 -1 19 -3 4 -6 -2 -5 -13z"/>
<path d="M4968 4079 c-85 -54 -90 -66 -67 -139 6 -19 14 -88 18 -152 l6 -117
123 91 c143 106 138 92 83 235 -30 76 -64 133 -79 133 -4 0 -42 -23 -84 -51z"/>
<path d="M6290 4094 c0 -8 5 -12 10 -9 6 3 10 10 10 16 0 5 -4 9 -10 9 -5 0
-10 -7 -10 -16z"/>
<path d="M6463 4055 c0 -22 2 -30 4 -17 2 12 2 30 0 40 -3 9 -5 -1 -4 -23z"/>
<path d="M4698 3936 c-139 -64 -188 -93 -188 -112 0 -7 12 -49 26 -91 15 -44
29 -112 32 -155 2 -43 8 -78 12 -78 4 0 76 35 161 78 l154 79 3 92 c3 92 -16
199 -39 228 -18 21 -37 16 -161 -41z"/>
<path d="M6240 3953 c0 -21 5 -45 10 -53 7 -11 10 -6 10 22 0 20 5 40 10 43
17 10 11 25 -10 25 -16 0 -20 -7 -20 -37z"/>
<path d="M6287 3973 c-10 -9 -9 -23 2 -23 5 0 11 7 15 15 5 15 -5 20 -17 8z"/>
<path d="M6187 3915 c-19 -39 -23 -105 -7 -105 6 0 10 21 10 46 0 25 5 54 11
66 6 11 9 22 7 24 -3 2 -12 -12 -21 -31z"/>
<path d="M13551 3926 c-8 -9 -11 -63 -9 -167 l3 -152 59 -14 c59 -13 151 -63
159 -86 10 -27 18 6 27 104 5 57 9 134 10 171 0 64 -1 68 -32 91 -60 45 -196
78 -217 53z"/>
<path d="M6330 3846 c-6 -9 -10 -21 -8 -28 3 -8 9 -4 17 10 15 28 9 39 -9 18z"/>
<path d="M5201 3835 c0 -11 4 -29 9 -40 l9 -20 0 20 c0 11 -4 29 -9 40 l-9 20
0 -20z"/>
<path d="M13826 3788 c-3 -24 -11 -104 -16 -178 -9 -106 -8 -136 1 -139 7 -2
24 -15 37 -28 13 -13 25 -23 26 -21 3 4 37 308 36 325 0 15 -58 83 -70 83 -5
0 -11 -19 -14 -42z"/>
<path d="M5048 3732 c-67 -50 -121 -98 -126 -112 -5 -14 -21 -72 -36 -130 -41
-168 -52 -204 -64 -208 -16 -5 -17 -10 23 128 19 67 36 138 37 159 3 31 0 36
-17 34 -37 -4 -274 -122 -284 -142 -6 -11 -11 -38 -11 -60 0 -44 -25 -172 -39
-199 -4 -9 -11 -36 -14 -60 l-5 -42 31 18 c18 11 86 47 152 82 168 87 356 215
449 305 l79 76 -6 72 c-7 89 -26 167 -41 167 -6 0 -64 -39 -128 -88z"/>
<path d="M4355 3786 c-94 -32 -161 -62 -169 -74 -3 -6 -2 -22 4 -37 6 -15 22
-84 36 -153 14 -70 27 -128 29 -131 2 -2 69 18 149 44 l146 47 0 46 c0 63 -23
168 -50 231 -27 61 -39 63 -145 27z"/>
<path d="M10536 3778 c-4 -18 -9 -88 -13 -154 l-6 -121 99 -31 c54 -17 123
-38 152 -46 l52 -15 0 67 c0 112 -25 254 -49 273 -20 16 -172 59 -209 59 -14
0 -21 -9 -26 -32z"/>
<path d="M10814 3693 c4 -38 11 -112 15 -165 4 -54 10 -100 13 -103 3 -3 11 1
18 10 10 12 10 18 0 30 -7 8 -17 75 -23 155 -6 77 -15 140 -21 140 -5 0 -6
-27 -2 -67z"/>
<path d="M6304 3729 c-6 -8 -15 -25 -19 -39 l-7 -25 22 21 c12 12 20 30 18 39
-2 15 -5 16 -14 4z"/>
<path d="M6285 3630 c-4 -6 6 -10 22 -10 22 0 25 2 13 10 -19 12 -27 12 -35 0z"/>
<path d="M6101 3550 c-5 -16 -8 -30 -6 -30 3 0 11 14 20 30 9 17 11 30 6 30
-5 0 -14 -13 -20 -30z"/>
<path d="M6270 3540 c-15 -28 -1 -49 17 -25 15 22 17 45 3 45 -5 0 -14 -9 -20
-20z"/>
<path d="M13541 3538 c-5 -13 -9 -65 -10 -117 -1 -52 -4 -98 -6 -102 -7 -11
16 -25 72 -43 28 -9 76 -35 106 -56 l54 -39 8 136 c8 159 4 169 -85 216 -67
35 -127 37 -139 5z"/>
<path d="M6231 3492 c-7 -13 -11 -33 -8 -45 3 -20 4 -20 16 7 16 39 10 70 -8
38z"/>
<path d="M6020 3459 c0 -5 5 -7 10 -4 6 3 10 8 10 11 0 2 -4 4 -10 4 -5 0 -10
-5 -10 -11z"/>
<path d="M10524 3456 c-8 -21 0 -373 8 -382 11 -10 315 45 351 64 5 2 -4 17
-18 32 -24 25 -28 39 -32 102 -7 120 -3 114 -91 134 -42 9 -108 27 -145 40
-54 19 -69 20 -73 10z"/>
<path d="M6071 3431 c-9 -6 -11 -16 -7 -27 7 -18 8 -18 22 0 23 32 16 46 -15
27z"/>
<path d="M13797 3423 c-4 -3 -7 -67 -7 -142 l1 -136 30 -33 c17 -19 32 -32 33
-30 2 1 7 71 10 153 7 144 6 151 -14 173 -21 22 -41 28 -53 15z"/>
<path d="M10844 3305 c2 -87 15 -129 42 -139 14 -5 6 41 -12 69 -8 12 -18 52
-23 90 l-10 70 3 -90z"/>
<path d="M6112 3341 c-18 -58 -14 -71 8 -26 21 43 25 65 12 65 -5 0 -14 -17
-20 -39z"/>
<path d="M6196 3325 c-9 -26 -7 -32 5 -12 6 10 9 21 6 23 -2 3 -7 -2 -11 -11z"/>
<path d="M6162 3239 c-24 -50 -28 -73 -10 -67 14 5 40 76 36 98 -2 8 -13 -5
-26 -31z"/>
<path d="M13516 3261 c-10 -16 -29 -158 -24 -172 3 -8 32 -20 65 -27 32 -6 85
-27 116 -46 31 -19 59 -31 61 -27 3 4 10 37 16 73 9 49 9 71 0 87 -16 31 -84
77 -146 101 -60 22 -80 25 -88 11z"/>
<path d="M10917 3142 l5 -38 -37 4 c-21 3 -68 -5 -108 -17 -40 -11 -103 -25
-142 -31 -117 -18 -108 -7 -102 -129 5 -111 35 -217 63 -228 13 -5 94 60 212
172 66 62 83 71 156 86 l59 12 -51 23 c-42 18 -52 27 -51 46 1 16 3 18 6 6 4
-15 76 -58 99 -58 5 0 -4 11 -19 25 -17 16 -27 36 -27 54 0 23 -51 111 -64
111 -2 0 -2 -17 1 -38z"/>
<path d="M13785 3098 c-2 -7 -6 -41 -10 -74 l-6 -62 39 -31 39 -30 6 65 c6 59
4 69 -20 105 -26 40 -41 48 -48 27z"/>
<path d="M5782 3035 c-6 -22 -12 -50 -12 -61 0 -12 -7 -24 -15 -28 -8 -3 -15
-10 -15 -16 0 -6 11 -3 25 7 26 19 39 62 33 109 -4 28 -4 28 -16 -11z"/>
<path d="M13472 2995 c-17 -85 -19 -82 51 -90 54 -6 113 -23 180 -50 16 -7 18
-2 15 55 l-3 63 -62 34 c-40 22 -82 36 -116 40 l-54 5 -11 -57z"/>
<path d="M11020 3020 c48 -38 107 -60 255 -95 171 -40 195 -42 143 -14 -21 11
-38 24 -38 29 0 11 -47 25 -72 21 -22 -3 -216 44 -264 64 -48 20 -54 19 -24
-5z"/>
<path d="M13759 2908 c-1 -13 -2 -30 -3 -38 -2 -22 13 -50 27 -50 7 0 30 -9
52 -20 48 -25 45 -25 45 3 0 28 -50 101 -79 116 -30 16 -41 13 -42 -11z"/>
<path d="M11500 2879 c8 -5 46 -26 83 -45 89 -45 150 -103 183 -170 31 -63 41
-66 20 -7 -36 102 -96 161 -209 206 -69 28 -105 35 -77 16z"/>
<path d="M13475 2880 c-24 -4 -32 -12 -41 -45 -7 -22 -13 -54 -13 -71 l-1 -31
113 -6 c62 -4 136 -14 163 -22 27 -8 52 -15 55 -15 9 0 -29 120 -42 136 -24
29 -178 64 -234 54z"/>
<path d="M13760 2791 c0 -5 9 -33 21 -63 20 -52 22 -54 107 -95 48 -23 98 -50
111 -59 17 -13 11 1 -24 57 -64 100 -82 118 -140 145 -53 25 -75 30 -75 15z"/>
<path d="M13453 2703 c-32 -6 -29 -21 15 -83 l37 -53 100 -3 c55 -2 122 -10
150 -18 27 -8 50 -14 52 -12 7 6 -36 119 -49 127 -38 25 -247 53 -305 42z"/>
<path d="M13820 2632 c0 -5 7 -29 16 -54 14 -44 17 -46 62 -52 26 -3 88 -24
137 -46 l90 -39 -60 57 c-35 33 -95 76 -142 100 -81 42 -103 49 -103 34z"/>
<path d="M13526 2532 c-2 -4 8 -44 22 -87 25 -74 29 -80 52 -77 71 8 169 3
209 -12 24 -9 47 -16 51 -16 9 0 -32 146 -45 159 -30 29 -274 57 -289 33z"/>
<path d="M13874 2466 c4 -19 13 -57 22 -85 l14 -50 69 6 c64 5 135 -9 220 -44
18 -7 6 30 -26 78 -33 51 -197 129 -269 129 -36 0 -36 0 -30 -34z"/>
<path d="M14290 2240 c0 -18 92 -171 106 -177 12 -4 114 46 114 57 0 3 -17 16
-37 29 -21 13 -50 41 -65 62 -25 36 -32 39 -73 39 -25 0 -45 -5 -45 -10z"/>
</g>
</svg>
