<svg width="992" height="399" viewBox="0 0 992 399" fill="none" xmlns="http://www.w3.org/2000/svg">
<g clip-path="url(#clip0_102_37)">
<path d="M839.265 92.9845V31.913H669.325L641.377 235.94L613.722 31.914H552.439L559.304 86.3552C552.225 72.4086 527.135 31.914 471.918 31.914C471.555 31.8902 410.552 31.914 410.552 31.914L410.317 329.299L365.648 31.914L285.388 31.8674L239.178 339.999L239.202 31.912H162.388L134.696 204.991L107.722 31.914H30.8833V366.904H91.3926V205.44L118.917 366.9H151.086L178.224 205.44V366.9H294.875L301.954 315.354H348.919L355.974 366.9L470.498 366.971H470.591V366.9H470.662H470.734V258.162L484.774 256.116L513.84 366.971H513.911H573.007H573.076L573.052 366.9H573.157H573.229L535.086 236.974C554.415 222.677 576.24 186.368 570.432 151.633V151.61C570.501 152.08 606.435 367.114 606.435 367.114L676.886 366.9L725.026 63.2592V366.901H839.268V306.653H785.04V229.825H839.268V168.66H785.04V92.9845H839.265ZM309.082 262.232L325.695 119.018L342.945 262.232H309.082ZM484.97 196.104C480.313 198.362 475.458 199.491 470.731 199.491V91.7383C470.813 91.7383 470.908 91.7165 471.025 91.7165C475.764 91.6927 511.095 93.15 511.095 145.026C511.095 172.163 499.079 189.261 484.97 196.104ZM961.185 306.606V366.854H849.741V31.8674H909.744V306.606H961.185Z" fill="white" fill-opacity="0.65"/>
</g>
<defs>
<clipPath id="clip0_102_37">
<rect width="991.371" height="399" fill="white" transform="translate(0.314575)"/>
</clipPath>
</defs>
</svg>
